<?xml version="1.0" standalone="no"?>
<!DOCTYPE svg PUBLIC "-//W3C//DTD SVG 20010904//EN"
 "http://www.w3.org/TR/2001/REC-SVG-20010904/DTD/svg10.dtd">
<svg version="1.0" xmlns="http://www.w3.org/2000/svg"
 width="640.000000pt" height="425.000000pt" viewBox="0 0 640.000000 425.000000"
 preserveAspectRatio="xMidYMid meet">
<metadata>
Created by potrace 1.16, written by Peter Selinger 2001-2019
</metadata>
<g transform="translate(0.000000,425.000000) scale(0.100000,-0.100000)"
fill="#000000" stroke="none">
<path d="M0 2125 l0 -2125 3200 0 3200 0 0 2125 0 2125 -1832 0 -1833 0 207
-207 c113 -115 214 -224 224 -243 24 -46 24 -134 0 -180 -20 -39 -1292 -1315
-1282 -1287 3 10 2 16 -3 12 -5 -3 -11 -2 -14 2 -2 5 -2 2 -1 -4 2 -7 -2 -13
-9 -13 -8 0 -7 -4 3 -11 12 -8 9 -10 -12 -6 -15 2 -25 0 -22 -4 3 -5 -1 -9 -8
-9 -7 0 -45 -33 -85 -72 -40 -40 -73 -67 -73 -60 0 6 5 12 10 12 6 0 10 5 10
11 0 5 -5 7 -10 4 -6 -4 -16 -2 -23 3 -20 16 -47 10 -47 -10 0 -10 -4 -18 -10
-18 -13 0 -13 6 1 31 5 11 15 16 21 13 7 -5 9 -2 5 9 -3 9 0 18 9 21 8 3 13 2
10 -3 -8 -12 21 -47 31 -38 4 5 1 14 -7 20 -24 19 -23 37 5 63 14 13 25 27 24
31 -1 4 -1 19 0 32 1 19 4 21 15 12 27 -22 69 19 63 63 -1 10 5 21 13 23 12 4
13 3 1 -5 -7 -5 -10 -15 -7 -21 11 -17 39 16 32 37 -5 14 -3 13 9 -2 17 -22
20 -5 5 24 -8 16 -8 18 5 14 8 -4 15 -10 15 -14 0 -4 6 -10 14 -13 23 -9 7 29
-17 41 -23 11 -23 11 26 16 6 0 12 6 12 13 0 17 12 26 25 18 9 -6 9 -10 -1
-16 -7 -4 -11 -10 -8 -14 3 -3 14 5 25 17 10 12 13 18 5 13 -10 -6 -11 -2 -6
16 4 13 12 27 17 30 5 3 3 9 -6 12 -9 4 -15 3 -15 -1 3 -18 -2 -32 -11 -32
-12 0 -5 50 8 59 5 3 5 17 1 31 l-7 25 -1 -27 c-1 -16 -6 -28 -12 -28 -5 0 -7
5 -3 12 5 7 3 8 -5 3 -7 -4 -11 -20 -9 -34 6 -38 -29 -55 -57 -29 -18 18 -18
18 15 12 24 -5 31 -4 26 4 -4 7 -16 12 -27 12 -11 0 -18 4 -15 9 3 5 15 7 26
4 16 -4 20 -1 19 18 0 13 -3 18 -6 12 -2 -7 -15 -13 -28 -13 -12 0 -35 -7 -51
-15 -19 -10 -30 -11 -35 -4 -3 6 -9 10 -13 9 -4 -1 -12 1 -19 3 -6 3 -3 6 8 7
20 1 20 1 1 15 -28 21 -32 19 -32 -20 0 -27 4 -35 18 -35 10 0 18 -5 18 -11 0
-5 -4 -7 -10 -4 -5 3 -10 -3 -10 -14 0 -12 -4 -21 -10 -21 -5 0 -10 11 -10 24
0 20 -8 26 -45 37 -24 7 -40 16 -34 19 6 4 5 11 -4 18 -14 12 -11 72 4 72 5 0
6 -6 3 -14 -3 -8 0 -17 6 -21 20 -12 22 2 6 33 -9 17 -13 38 -10 46 5 12 2 15
-12 10 -18 -5 -18 -5 0 10 18 14 17 15 -8 22 -17 4 -26 13 -26 25 0 10 -4 19
-10 19 -5 0 -10 -6 -10 -13 0 -16 -47 -43 -57 -34 -3 4 1 7 10 7 9 0 17 6 17
14 0 26 -17 26 -30 1 -12 -23 -30 -25 -30 -4 0 6 5 7 12 3 7 -5 9 -2 5 9 -3 9
-1 18 6 20 9 3 8 8 -2 18 -10 11 -15 11 -18 2 -3 -7 -10 -13 -16 -13 -7 1 -1
10 12 20 23 20 23 20 2 20 -12 0 -21 5 -21 10 0 6 11 8 25 4 15 -4 32 -1 42 7
18 15 18 15 -3 -36 -3 -8 -1 -15 5 -15 6 0 11 7 11 15 0 10 10 15 29 15 32 0
48 14 30 26 -6 3 -15 1 -19 -6 -4 -7 -13 -9 -20 -5 -9 6 -9 9 1 16 9 6 2 7
-20 5 -34 -4 -67 14 -53 29 4 5 1 5 -6 1 -7 -5 -11 -15 -7 -23 4 -12 2 -13 -8
-5 -8 7 -17 8 -23 3 -5 -5 -20 -4 -34 2 -14 5 -33 9 -42 8 -24 -3 -23 16 2 29
16 9 20 8 20 -5 0 -28 18 -15 23 18 6 39 4 42 -16 22 -11 -10 -25 -13 -42 -9
-34 8 -32 23 5 31 17 3 30 10 30 15 0 5 -4 7 -9 4 -5 -4 -12 0 -14 6 -4 10 -8
9 -16 -2 -12 -17 -12 -17 -16 28 -3 37 -1 38 27 12 16 -15 25 -17 40 -9 20 11
20 30 0 37 -7 2 -10 -2 -6 -12 5 -12 2 -15 -10 -10 -12 4 -13 10 -6 24 13 24
13 40 0 20 -8 -12 -11 -12 -27 2 -22 20 -49 9 -40 -16 4 -9 2 -16 -3 -16 -6 0
-10 9 -10 19 0 24 -16 36 -23 19 -3 -7 -6 -8 -6 -2 -1 5 6 19 14 30 9 12 14
14 15 6 0 -15 40 -6 52 11 12 19 -5 31 -18 13 -11 -16 -15 -16 -43 -1 -29 14
-35 13 -32 -7 0 -5 -5 -8 -12 -8 -7 0 -19 -10 -27 -21 -8 -12 -20 -27 -27 -34
-7 -7 -11 -14 -10 -16 1 -3 -2 -1 -8 3 -5 5 21 39 63 81 68 68 102 89 102 63
0 -6 4 -5 9 3 8 13 12 13 28 1 17 -14 17 -14 0 7 -18 20 -18 22 0 32 10 6 13
11 6 11 -6 0 -18 -8 -25 -17 -7 -10 -20 -19 -28 -21 -9 -2 -2 10 14 27 17 17
37 31 46 31 20 0 93 -74 83 -84 -5 -4 -3 -6 2 -5 12 4 40 -18 116 -95 51 -50
57 -61 47 -75 -11 -14 -11 -14 3 -3 15 11 37 -8 172 -141 86 -84 155 -159 154
-167 -2 -8 -6 -21 -10 -27 -5 -8 -3 -13 3 -13 6 0 9 -4 6 -9 -3 -5 1 -12 10
-15 10 -4 13 -2 8 6 -8 13 -14 58 -8 58 9 0 94 -94 95 -105 1 -5 1 -16 0 -24
-2 -7 2 -10 8 -6 24 14 8 49 -46 106 -31 32 -53 59 -48 59 4 0 2 7 -5 15 -7 9
-15 13 -18 10 -3 -3 -128 116 -277 265 -208 207 -277 270 -296 270 -18 0 -63
-38 -178 -154 -85 -85 -159 -152 -164 -149 -6 3 -7 1 -4 -4 8 -13 -17 -36 -28
-25 -5 4 -6 2 -2 -4 3 -5 -24 -39 -61 -75 -37 -35 -59 -55 -50 -44 9 11 18 25
20 30 2 6 6 9 10 8 5 -2 8 4 8 13 0 8 -5 12 -10 9 -6 -3 -10 -1 -10 4 0 6 9
16 19 23 10 6 17 18 14 25 -7 18 -23 16 -23 -3 0 -8 -5 -12 -10 -9 -6 3 -14
-3 -18 -15 -4 -12 -10 -20 -12 -18 -8 5 -50 -29 -44 -35 4 -4 -4 -11 -17 -16
-13 -5 -44 -31 -69 -58 -25 -26 -69 -69 -98 -95 -28 -25 -52 -51 -52 -57 0 -6
-5 -11 -10 -11 -6 0 -19 -9 -31 -21 -13 -13 -27 -18 -37 -14 -14 6 -15 8 -2
13 21 8 40 29 33 36 -4 3 1 6 10 6 11 0 14 5 10 17 -4 9 -2 14 3 10 5 -3 21 9
34 26 14 17 40 47 58 65 32 32 43 60 20 46 -7 -4 9 16 37 45 49 50 63 62 49
39 -5 -7 -3 -8 5 -4 7 5 10 11 6 14 -3 3 62 74 145 157 93 94 150 159 150 172
0 20 -155 183 -175 183 -6 0 -31 -20 -55 -45 -46 -47 -60 -54 -60 -32 0 15 74
90 81 82 3 -3 16 7 30 22 13 14 19 23 12 19 -6 -3 -14 -2 -18 4 -3 5 0 10 7
10 7 0 51 38 97 84 65 66 85 91 86 115 1 17 -1 28 -5 26 -11 -7 -51 40 -43 50
5 4 3 5 -3 2 -6 -3 -30 13 -53 37 -26 27 -36 43 -26 43 8 0 13 -3 10 -5 -8 -9
17 -32 27 -26 6 4 36 -19 68 -51 42 -41 62 -55 72 -49 29 18 168 172 168 186
0 16 -161 178 -177 178 -6 0 -21 -11 -35 -25 -23 -22 -24 -23 -23 -4 2 26 86
111 103 104 7 -2 10 0 7 5 -4 6 -213 10 -581 10 l-574 0 0 -2125z m5040 1519
c266 -55 513 -217 659 -432 42 -62 104 -182 115 -222 4 -14 -15 20 -42 75 -60
122 -100 177 -193 272 -133 134 -301 231 -487 280 -131 35 -341 43 -463 18
-541 -109 -910 -600 -850 -1132 13 -113 49 -247 82 -299 11 -19 17 -34 12 -34
-4 0 -1 -6 8 -13 9 -7 16 -16 16 -20 2 -23 27 -66 36 -60 6 4 8 0 4 -11 -4
-10 -1 -19 8 -22 8 -4 15 -12 15 -19 0 -8 12 -28 26 -45 15 -17 24 -33 21 -36
-9 -9 -106 136 -143 213 -139 293 -135 624 11 918 214 434 691 666 1165 569z
m-2 -489 c257 -81 428 -338 393 -590 -6 -42 -22 -105 -36 -138 -13 -33 -21
-65 -18 -71 3 -6 3 -8 -2 -4 -5 5 -23 -13 -40 -40 -68 -99 -174 -180 -290
-219 -244 -83 -510 8 -654 222 -85 128 -116 269 -87 405 47 220 203 387 417
444 89 24 225 20 317 -9z"/>
<path d="M4732 3134 c-180 -48 -336 -200 -382 -373 -14 -52 -14 -157 -1 -227
12 -63 62 -174 77 -174 7 0 15 -7 18 -17 6 -14 8 -14 21 3 17 22 19 15 6 -19
-12 -30 -3 -41 17 -25 11 10 17 9 27 -5 7 -9 18 -17 26 -17 8 0 6 -6 -7 -15
-18 -15 -18 -15 0 -8 14 5 17 3 11 -7 -5 -8 -4 -11 2 -7 11 7 83 -13 83 -24 0
-17 149 -44 240 -44 127 1 153 9 295 98 11 6 23 16 27 22 4 5 10 7 13 3 10
-10 -70 -85 -117 -109 -38 -19 -58 -24 -120 -28 -11 -1 -18 -9 -18 -22 0 -19
4 -21 33 -15 56 11 174 75 219 119 229 223 245 547 37 754 -66 66 -150 115
-239 138 -69 18 -198 18 -268 -1z"/>
<path d="M1158 4225 c-10 -13 -18 -30 -18 -37 0 -15 160 -178 175 -178 20 0
175 165 175 186 0 46 -26 54 -176 54 -135 -1 -139 -1 -156 -25z"/>
<path d="M1630 4242 c0 -5 38 -46 86 -92 l85 -83 85 84 c46 46 84 87 84 91 0
5 -76 8 -170 8 -93 0 -170 -4 -170 -8z"/>
<path d="M1576 4038 c-42 -46 -76 -88 -76 -95 0 -15 47 -71 72 -84 17 -9 30 0
104 78 46 48 84 95 84 104 0 22 -62 79 -87 79 -13 0 -48 -30 -97 -82z"/>
<path d="M1279 3914 c-46 -47 -86 -89 -87 -95 -5 -14 159 -179 178 -179 24 0
170 152 170 176 0 23 -146 184 -166 184 -6 0 -49 -38 -95 -86z"/>
<path d="M1090 3725 c-29 -30 -58 -51 -63 -48 -6 3 -7 1 -4 -4 8 -13 -17 -36
-28 -25 -5 4 -5 2 -2 -4 3 -6 -11 -28 -32 -48 -21 -21 -41 -34 -43 -29 -3 4
-3 2 -2 -4 2 -7 -5 -17 -14 -23 -16 -9 -16 -11 1 -21 9 -5 28 -22 42 -37 14
-15 29 -27 33 -27 21 -1 53 -28 48 -41 -3 -9 -1 -12 5 -9 5 4 22 -5 36 -19 14
-14 29 -26 34 -26 12 0 212 207 223 231 8 17 -3 33 -75 105 -46 46 -88 84 -94
84 -6 0 -35 -25 -65 -55z"/>
</g>
</svg>
