<?xml version="1.0" standalone="no"?>
<!DOCTYPE svg PUBLIC "-//W3C//DTD SVG 20010904//EN"
 "http://www.w3.org/TR/2001/REC-SVG-20010904/DTD/svg10.dtd">
<svg version="1.0" xmlns="http://www.w3.org/2000/svg"
 width="4096.000000pt" height="4096.000000pt" viewBox="0 0 4096.000000 4096.000000"
 preserveAspectRatio="xMidYMid meet">
<metadata>
Created by potrace 1.16, written by Peter Selinger 2001-2019
</metadata>
<g transform="translate(0.000000,4096.000000) scale(0.100000,-0.100000)"
fill="#000000" stroke="none">
<path d="M1415 40940 c-238 -43 -462 -133 -665 -267 -160 -106 -357 -303 -463
-463 -125 -190 -207 -385 -260 -620 -18 -82 -21 -127 -21 -335 0 -211 2 -252
22 -342 58 -268 172 -512 335 -723 28 -36 1708 -1723 3734 -3750 2025 -2027
3683 -3688 3683 -3691 0 -3 -46 -46 -102 -95 -1332 -1155 -2620 -2471 -3753
-3834 -1384 -1666 -2585 -3437 -3639 -5366 -237 -435 -293 -639 -283 -1023 11
-416 76 -582 585 -1476 1169 -2058 2707 -4184 4335 -5993 625 -694 1335 -1415
1982 -2012 3705 -3420 7762 -5371 11975 -5760 608 -56 1069 -74 1690 -67 474
6 591 11 1030 42 3028 221 5994 1188 8588 2803 l234 145 3851 -3850 c2119
-2117 3881 -3872 3917 -3900 210 -162 457 -277 718 -334 73 -15 147 -22 297
-26 175 -5 216 -2 330 17 245 41 466 129 675 267 160 106 357 303 463 463 125
190 207 385 260 620 18 82 21 127 21 335 0 211 -2 252 -22 342 -58 268 -171
512 -335 723 -64 83 -37661 37685 -37782 37788 -218 184 -477 311 -763 373
-146 32 -484 36 -637 9z m13131 -16985 c-49 -76 -161 -273 -237 -418 -848
-1605 -1019 -3501 -474 -5233 673 -2135 2334 -3796 4471 -4469 963 -304 2016
-389 3019 -244 598 86 1168 247 1735 489 242 103 622 299 840 433 l75 46 1977
-1976 c1087 -1088 1976 -1978 1975 -1979 -1 0 -78 -44 -172 -96 -1729 -967
-3643 -1598 -5605 -1847 -970 -124 -1776 -149 -2670 -85 -2275 162 -4542 908
-6701 2204 -1974 1186 -3845 2793 -5629 4835 -1242 1422 -2466 3122 -3422
4750 l-64 109 114 196 c981 1669 2109 3221 3401 4680 391 442 730 800 1226
1295 627 627 991 965 1740 1613 l70 61 2172 -2172 c2027 -2026 2172 -2173
2159 -2192z m6816 -6857 c-103 -32 -335 -87 -452 -107 -375 -63 -784 -60
-1170 10 -1243 224 -2276 1144 -2645 2354 -193 634 -199 1288 -18 1933 l37
133 2153 -2153 2152 -2152 -57 -18z"/>
<path d="M19695 35830 c-1061 -51 -2066 -186 -3065 -411 -209 -47 -332 -86
-458 -145 -643 -301 -1031 -961 -982 -1670 49 -695 504 -1282 1166 -1504 215
-71 470 -101 688 -81 68 7 245 39 415 76 1102 239 2060 336 3181 322 607 -8
1035 -37 1589 -107 2946 -376 5822 -1715 8548 -3981 2282 -1898 4465 -4471
6201 -7311 175 -285 318 -529 315 -538 -1 -3 -46 -82 -101 -175 -839 -1434
-1810 -2818 -2843 -4055 -176 -211 -242 -306 -319 -465 -118 -243 -160 -416
-167 -700 -5 -175 -2 -216 16 -328 50 -289 175 -572 350 -792 106 -133 308
-309 458 -399 565 -338 1301 -317 1844 55 195 134 290 234 724 769 1277 1575
2410 3265 3383 5051 169 310 225 432 266 587 47 176 59 286 53 501 -11 424
-76 586 -628 1551 -1155 2024 -2685 4132 -4292 5918 -672 746 -1483 1562
-2202 2213 -2511 2277 -5267 3921 -8050 4802 -1442 456 -2771 705 -4295 803
-285 18 -1502 28 -1795 14z"/>
</g>
</svg>
