<?xml version="1.0" standalone="no"?>
<!DOCTYPE svg PUBLIC "-//W3C//DTD SVG 20010904//EN"
 "http://www.w3.org/TR/2001/REC-SVG-20010904/DTD/svg10.dtd">
<svg version="1.0" xmlns="http://www.w3.org/2000/svg"
 width="4096.000000pt" height="4096.000000pt" viewBox="0 0 4096.000000 4096.000000"
 preserveAspectRatio="xMidYMid meet">
<metadata>
Created by potrace 1.16, written by Peter Selinger 2001-2019
</metadata>
<g transform="translate(0.000000,4096.000000) scale(0.100000,-0.100000)"
fill="#000000" stroke="none">
<path d="M28790 40949 c-2699 -141 -5238 -1105 -7343 -2788 -1300 -1039 -2383
-2321 -3210 -3801 -131 -234 -395 -765 -506 -1017 -656 -1490 -1011 -3028
-1081 -4678 -69 -1636 212 -3327 819 -4935 l81 -215 -7868 -7870 c-5590 -5591
-7893 -7900 -7952 -7975 -199 -251 -327 -494 -391 -743 -56 -221 -52 -48 -56
-2382 -3 -1523 -1 -2179 7 -2250 82 -742 515 -1435 1169 -1873 241 -161 572
-304 847 -366 256 -58 160 -56 2452 -56 1410 0 2136 3 2192 10 376 47 683 182
1020 450 68 54 457 435 1115 1092 l1010 1008 1588 0 c1045 0 1621 4 1685 11
614 66 1214 373 1619 828 298 334 504 729 597 1144 63 278 60 191 63 1729 l4
1408 1370 0 c892 0 1404 4 1467 11 457 49 903 228 1277 513 467 355 812 890
939 1459 63 281 60 168 63 1947 l3 1625 1516 1516 1516 1516 218 -83 c1252
-472 2537 -745 3835 -814 244 -13 964 -13 1210 0 2231 117 4285 758 6150 1919
1218 758 2331 1748 3228 2870 560 700 1059 1477 1446 2248 l71 143 0 5610 0
5610 -71 143 c-617 1231 -1486 2420 -2478 3390 -2183 2132 -4993 3405 -8011
3627 -414 30 -1213 40 -1610 19z m1240 -2570 c1830 -106 3577 -691 5090 -1704
571 -382 1055 -780 1546 -1270 360 -360 596 -626 885 -1000 1735 -2245 2456
-5121 1988 -7930 -212 -1273 -643 -2443 -1317 -3575 -570 -957 -1349 -1867
-2229 -2602 -1599 -1336 -3575 -2152 -5643 -2333 -555 -48 -1190 -50 -1725 -5
-1061 90 -2094 352 -3125 792 -261 112 -777 368 -1032 512 -103 58 -191 106
-195 106 -15 0 -4440 -4435 -4503 -4514 -166 -207 -329 -495 -418 -741 -46
-126 -103 -352 -129 -505 -16 -96 -18 -241 -20 -1737 l-4 -1633 -1372 0 c-846
0 -1407 -4 -1462 -10 -1092 -121 -1988 -923 -2225 -1990 -57 -256 -54 -176
-57 -1707 l-4 -1412 -1647 -3 -1647 -3 -124 -23 c-151 -29 -336 -79 -467 -127
-232 -85 -517 -247 -724 -411 -47 -37 -519 -501 -1050 -1031 l-965 -963 -1803
0 -1802 0 0 1798 c0 988 -3 1806 -6 1818 -5 20 632 657 15875 15870 l944 942
-55 93 c-418 712 -786 1573 -1017 2379 -479 1673 -507 3449 -81 5170 400 1613
1178 3081 2308 4355 243 274 717 734 1032 1001 877 745 1932 1362 3025 1769
1316 490 2753 706 4155 624z"/>
<path d="M30805 35829 c-150 -23 -344 -89 -662 -225 -544 -232 -1037 -532
-1473 -894 -161 -133 -526 -499 -660 -659 -391 -471 -701 -992 -937 -1575
-153 -377 -182 -481 -190 -687 -7 -168 10 -295 57 -440 57 -174 109 -257 406
-656 1154 -1549 2515 -2957 4019 -4159 361 -289 841 -650 998 -752 203 -131
494 -205 737 -188 183 14 321 53 650 186 1512 612 2580 1683 3195 3205 135
333 171 462 182 653 7 137 -16 300 -62 439 -60 180 -101 250 -341 574 -1341
1821 -2955 3434 -4799 4795 -248 183 -297 216 -402 268 -169 84 -307 117 -513
121 -80 2 -172 0 -205 -6z m317 -1396 c640 -469 1277 -995 1898 -1568 229
-211 875 -853 1081 -1075 489 -527 902 -1013 1316 -1550 134 -174 388 -515
407 -547 18 -31 -229 -585 -373 -838 -95 -166 -276 -434 -397 -585 -140 -175
-471 -506 -644 -644 -268 -212 -552 -390 -865 -541 -224 -108 -472 -208 -499
-201 -11 3 -152 103 -311 223 -1687 1266 -3149 2725 -4408 4401 l-160 214 23
66 c71 204 224 538 346 757 84 152 268 430 369 560 426 547 1010 1002 1665
1296 71 32 359 153 377 158 2 1 81 -56 175 -126z"/>
</g>
</svg>
