<?xml version="1.0" standalone="no"?>
<!DOCTYPE svg PUBLIC "-//W3C//DTD SVG 20010904//EN"
 "http://www.w3.org/TR/2001/REC-SVG-20010904/DTD/svg10.dtd">
<svg version="1.0" xmlns="http://www.w3.org/2000/svg"
 width="4096.000000pt" height="4096.000000pt" viewBox="0 0 4096.000000 4096.000000"
 preserveAspectRatio="xMidYMid meet">
<metadata>
Created by potrace 1.16, written by Peter Selinger 2001-2019
</metadata>
<g transform="translate(0.000000,4096.000000) scale(0.100000,-0.100000)"
fill="#000000" stroke="none">
<path d="M19720 35829 c-1739 -81 -3329 -380 -4955 -932 -3852 -1308 -7481
-4016 -10626 -7927 -1331 -1655 -2566 -3523 -3551 -5370 -265 -497 -588 -1151
-588 -1192 0 -45 432 -898 718 -1418 1702 -3095 3952 -6007 6362 -8231 1344
-1240 2780 -2305 4250 -3149 607 -349 1419 -755 2050 -1025 1845 -790 3744
-1262 5695 -1415 539 -42 921 -53 1588 -47 554 5 695 10 1087 37 1835 127
3674 555 5427 1263 3129 1265 6073 3438 8733 6447 1695 1917 3277 4202 4505
6505 189 353 545 1076 545 1105 0 29 -356 752 -545 1105 -1813 3400 -4278
6585 -6917 8936 -3402 3031 -7134 4789 -11078 5218 -324 36 -561 55 -995 82
-218 14 -1463 20 -1705 8z m1555 -3428 c290 -20 537 -41 765 -66 3437 -383
6730 -2041 9740 -4907 213 -203 770 -761 951 -953 1587 -1687 3055 -3678 4253
-5772 l128 -223 -113 -197 c-1122 -1968 -2529 -3905 -4004 -5513 -347 -378
-851 -892 -1215 -1238 -3010 -2865 -6306 -4526 -9740 -4906 -577 -64 -897 -81
-1565 -81 -559 0 -713 6 -1145 41 -1328 108 -2621 400 -3915 884 -785 294
-1673 717 -2440 1162 -1164 676 -2285 1503 -3395 2503 -540 486 -1220 1166
-1754 1753 -1295 1425 -2530 3097 -3576 4842 -113 190 -250 422 -304 517 l-97
171 156 274 c1938 3378 4402 6289 7030 8304 2724 2089 5683 3249 8685 3404
113 6 232 12 265 14 126 7 1138 -3 1290 -13z"/>
<path d="M20065 27299 c-1943 -121 -3721 -1045 -4928 -2561 -970 -1218 -1487
-2698 -1487 -4258 0 -2101 944 -4051 2595 -5362 964 -765 2133 -1257 3359
-1412 331 -42 481 -51 881 -51 385 0 520 8 835 46 2260 272 4248 1677 5273
3725 336 673 567 1426 661 2164 42 326 50 470 50 890 0 504 -19 740 -95 1180
-281 1634 -1166 3123 -2471 4163 -1229 979 -2717 1494 -4288 1486 -140 -1
-313 -6 -385 -10z m770 -3429 c796 -92 1491 -425 2050 -985 769 -768 1123
-1831 966 -2900 -107 -728 -441 -1387 -970 -1915 -1031 -1029 -2580 -1289
-3886 -655 -343 167 -643 382 -921 659 -561 561 -893 1254 -985 2061 -7 61
-13 216 -13 345 0 316 26 531 100 829 216 869 789 1637 1570 2102 444 264 951
425 1475 468 133 11 484 6 614 -9z"/>
</g>
</svg>
