<?xml version="1.0" standalone="no"?>
<!DOCTYPE svg PUBLIC "-//W3C//DTD SVG 20010904//EN"
 "http://www.w3.org/TR/2001/REC-SVG-20010904/DTD/svg10.dtd">
<svg version="1.0" xmlns="http://www.w3.org/2000/svg"
 width="4096.000000pt" height="4096.000000pt" viewBox="0 0 4096.000000 4096.000000"
 preserveAspectRatio="xMidYMid meet">
<metadata>
Created by potrace 1.16, written by Peter Selinger 2001-2019
</metadata>
<g transform="translate(0.000000,4096.000000) scale(0.100000,-0.100000)"
fill="#000000" stroke="none">
<path d="M20060 37114 c-19 -2 -105 -9 -190 -14 -698 -49 -1491 -229 -2170
-493 -771 -299 -1520 -741 -2145 -1266 -410 -343 -828 -777 -1146 -1186 -802
-1033 -1327 -2252 -1523 -3535 -67 -439 -81 -638 -81 -1180 0 -469 4 -561 41
-885 179 -1582 857 -3080 1934 -4270 142 -157 434 -447 585 -582 1169 -1044
2640 -1708 4195 -1892 340 -41 446 -46 925 -46 538 0 740 14 1175 81 1741 268
3332 1127 4520 2439 1077 1190 1751 2679 1934 4270 39 331 48 558 43 990 -6
500 -25 724 -98 1166 -214 1308 -781 2559 -1628 3593 -227 277 -528 593 -796
836 -1170 1058 -2622 1726 -4185 1924 -321 41 -445 48 -900 51 -250 2 -471 1
-490 -1z m800 -2574 c843 -60 1680 -341 2396 -806 1200 -778 2027 -2030 2263
-3424 58 -343 66 -439 66 -870 0 -430 -8 -526 -66 -870 -276 -1636 -1375
-3071 -2886 -3769 -743 -343 -1515 -497 -2350 -469 -1492 50 -2907 775 -3834
1963 -520 667 -871 1459 -1008 2275 -59 346 -66 440 -66 870 0 430 7 524 66
870 84 502 268 1047 502 1490 694 1315 1884 2251 3312 2605 514 128 1055 173
1605 135z"/>
<path d="M19200 20469 c-3671 -169 -7124 -1470 -9988 -3763 -741 -593 -1511
-1329 -2137 -2041 -1311 -1491 -2344 -3179 -3071 -5017 -162 -410 -169 -447
-161 -867 27 -1395 523 -2744 1418 -3851 262 -325 625 -688 949 -950 1037
-836 2286 -1324 3610 -1410 116 -8 3322 -10 10775 -8 l10610 4 180 21 c695 83
1250 226 1840 476 1125 476 2103 1281 2797 2302 552 812 914 1756 1042 2715
43 326 51 442 51 775 0 367 -2 383 -96 633 -418 1109 -1052 2334 -1751 3380
-895 1340 -2027 2598 -3273 3636 -1830 1526 -3951 2651 -6241 3311 -1318 380
-2613 590 -4034 655 -252 12 -2265 11 -2520 -1z m2485 -2569 c2316 -119 4452
-728 6440 -1837 1550 -865 2958 -2034 4097 -3404 925 -1113 1688 -2372 2246
-3708 l85 -205 -7 -100 c-18 -293 -101 -677 -212 -984 -380 -1049 -1205 -1889
-2244 -2285 -319 -121 -633 -195 -1015 -239 -144 -16 -20593 -25 -20965 -9
-300 13 -469 35 -725 92 -1120 252 -2085 1016 -2593 2052 -194 395 -312 797
-367 1247 -24 201 -23 211 45 378 393 955 941 1957 1535 2803 508 723 987
1292 1629 1935 700 700 1351 1239 2148 1777 2309 1562 4995 2422 7793 2497
388 11 1851 4 2110 -10z"/>
</g>
</svg>
