<?xml version="1.0" standalone="no"?>
<!DOCTYPE svg PUBLIC "-//W3C//DTD SVG 20010904//EN"
 "http://www.w3.org/TR/2001/REC-SVG-20010904/DTD/svg10.dtd">
<svg version="1.0" xmlns="http://www.w3.org/2000/svg"
 width="650.000000pt" height="975.000000pt" viewBox="0 0 650.000000 975.000000"
 preserveAspectRatio="xMidYMid meet">

<g transform="translate(0.000000,975.000000) scale(0.100000,-0.100000)"
fill="#000000" stroke="none">
<path d="M1 9590 c-2 -107 1 -160 8 -160 6 0 129 27 274 59 371 85 1045 239
1087 250 22 6 -218 9 -625 9 -377 0 -651 -3 -640 -8 19 -8 19 -9 -2 -9 -13 -1
-23 4 -23 9 0 6 -17 10 -39 10 l-38 0 -2 -160z"/>
<path d="M1835 9709 c-93 -22 -296 -69 -450 -104 -154 -35 -527 -120 -828
-189 -301 -69 -550 -126 -552 -126 -3 0 -5 -144 -5 -321 l0 -321 23 5 c19 5
416 96 1837 422 129 29 339 77 465 105 127 28 239 55 250 60 19 7 22 24 39
236 10 126 20 239 23 252 l5 22 -318 -1 -319 0 -170 -40z"/>
<path d="M2767 9698 c-3 -29 -20 -152 -36 -273 -17 -121 -31 -221 -31 -221 0
-1 -40 -9 -90 -20 -58 -11 -90 -22 -90 -31 0 -16 10 -16 90 3 108 25 101 37
192 -352 42 -181 77 -332 77 -336 1 -5 185 -8 411 -8 l409 0 13 23 c7 12 12
25 11 28 -4 12 88 8 153 -7 47 -10 70 -12 77 -5 8 8 5 11 -8 12 -11 0 -36 2
-55 5 -19 3 -41 5 -47 6 -7 1 -13 5 -13 9 0 5 -17 6 -37 4 -23 -3 -33 -2 -25
3 13 9 35 8 107 -2 29 -5 35 -4 20 3 -19 9 -19 10 2 10 12 1 23 -4 25 -9 2 -6
14 -7 33 -1 26 7 46 7 118 2 4 -1 7 -6 7 -12 0 -6 -6 -9 -14 -6 -7 3 -18 1
-24 -5 -6 -6 -16 -7 -23 -2 -15 9 -79 17 -79 10 0 -3 18 -10 41 -16 29 -8 39
-15 35 -26 -3 -9 1 -14 14 -14 13 0 18 5 14 15 -4 10 0 15 15 15 18 0 20 -3
11 -20 -10 -19 -4 -19 714 -17 660 2 723 1 710 -14 -12 -13 -14 -174 -16
-1080 l-3 -1064 -5 1080 -5 1080 -2 -1135 c-1 -624 1 -1129 4 -1122 2 6 9 10
13 7 5 -3 15 3 22 12 26 36 162 104 252 127 119 31 275 16 387 -37 26 -13 46
-19 42 -14 -3 5 4 4 15 -2 24 -13 45 -14 38 -3 -3 5 1 9 9 9 10 0 12 -4 5 -12
-7 -8 -1 -12 20 -12 31 0 40 11 18 20 -7 3 -3 4 10 4 23 -1 29 -12 12 -22 -7
-4 -6 -14 1 -28 l12 -22 -25 23 c-34 31 -47 28 -17 -5 l24 -27 -30 21 c-16 11
-41 25 -55 32 -21 10 -22 9 -6 -1 185 -126 287 -333 273 -555 -4 -58 -3 -93 3
-93 7 0 10 731 10 2060 l0 2060 -1864 0 -1863 0 -6 -52z m170 -8 c2 -2 8 2 13
10 8 12 10 10 10 -7 0 -19 -6 -23 -30 -23 -32 0 -33 2 -23 39 5 22 7 22 16 5
5 -11 12 -21 14 -24z m-15 -220 c4 0 12 -9 18 -20 6 -11 7 -20 3 -20 -13 0
-73 58 -73 70 0 6 10 2 22 -10 12 -11 25 -20 30 -20z m35 -237 c-3 -10 -5 -4
-5 12 0 17 2 24 5 18 2 -7 2 -21 0 -30z m53 -139 c0 -8 -4 -12 -10 -9 -5 3
-10 10 -10 16 0 5 5 9 10 9 6 0 10 -7 10 -16z m27 -126 c-2 -13 -4 -3 -4 22 0
25 2 35 4 23 2 -13 2 -33 0 -45z m43 -194 c0 -8 -4 -12 -10 -9 -5 3 -10 10
-10 16 0 5 5 9 10 9 6 0 10 -7 10 -16z m40 -26 c0 -16 -3 -19 -11 -11 -6 6 -8
16 -5 22 11 17 16 13 16 -11z m-29 -38 c5 0 9 -7 9 -15 0 -8 -4 -15 -10 -15
-15 0 -32 39 -23 53 5 9 9 7 11 -5 2 -10 8 -18 13 -18z m26 -167 c-3 -10 -5
-4 -5 12 0 17 2 24 5 18 2 -7 2 -21 0 -30z m599 -15 c-1 -13 -7 -32 -14 -43
l-11 -20 -2 20 c-1 11 -3 27 -4 35 -2 21 4 30 20 30 8 0 13 -9 11 -22z m31 7
c0 -8 -4 -12 -9 -9 -5 3 -6 10 -3 15 9 13 12 11 12 -6z m1769 -107 c-2 -13 -6
-30 -10 -38 -3 -8 -5 -481 -4 -1050 l3 -1035 50 1 c28 1 40 -1 27 -3 -12 -3
-20 -8 -18 -12 3 -4 -4 -7 -14 -7 -10 0 -16 5 -13 10 3 5 1 6 -6 2 -9 -6 -9
-11 0 -22 9 -11 9 -14 -1 -14 -6 0 -14 9 -17 20 -7 28 -26 25 -20 -2 4 -19 -8
-74 -13 -58 -5 18 -4 73 2 77 5 2 8 476 8 1054 0 832 3 1049 13 1049 8 0 8 3
-2 9 -12 8 -12 11 0 25 18 20 18 20 15 -6z m152 -2049 c-7 -4 3 -9 22 -11 l35
-3 -28 -13 c-16 -6 -26 -8 -23 -3 8 12 -37 22 -48 11 -7 -7 -4 -10 6 -10 23 0
31 -17 12 -24 -8 -3 -12 -2 -9 3 3 5 -3 12 -14 16 -11 3 -18 13 -16 23 4 21
-1 18 40 18 19 0 29 -3 23 -7z m145 4 c-7 -2 -19 -2 -25 0 -7 3 -2 5 12 5 14
0 19 -2 13 -5z m80 0 c-7 -2 -21 -2 -30 0 -10 3 -4 5 12 5 17 0 24 -2 18 -5z
m131 -5 c-7 -10 -35 -10 -51 0 -8 5 1 8 22 8 18 0 31 -4 29 -8z m133 -27 c2
-33 2 -33 -13 -13 -8 12 -22 22 -31 22 -14 0 -14 -2 3 -15 17 -13 16 -13 -15
-2 -20 7 -27 13 -17 15 9 2 14 7 11 12 -3 5 -12 7 -19 4 -8 -3 -16 -2 -19 3
-3 4 18 8 47 8 l51 0 2 -34z m-400 23 c-3 -3 -12 -4 -19 -1 -8 3 -5 6 6 6 11
1 17 -2 13 -5z m618 -154 c13 22 21 8 20 -35 0 -40 2 -44 18 -39 13 4 17 2 13
-5 -12 -19 -33 -12 -59 18 -14 17 -28 27 -32 23 -5 -4 -5 -2 -2 4 4 7 -1 15
-10 18 -15 6 -15 9 -3 16 8 5 21 5 31 -1 11 -6 20 -5 24 1z m85 -80 c0 -5 -4
-10 -10 -10 -5 0 -10 5 -10 10 0 6 5 10 10 10 6 0 10 -4 10 -10z m10 -30 c5 9
8 5 7 -12 -2 -24 -3 -24 -24 -9 -12 9 -23 20 -23 25 0 5 7 3 16 -5 13 -10 17
-10 24 1z"/>
<path d="M3690 8510 c0 -5 5 -10 11 -10 5 0 7 5 4 10 -3 6 -8 10 -11 10 -2 0
-4 -4 -4 -10z"/>
<path d="M6120 6370 c8 -5 20 -10 25 -10 6 0 3 5 -5 10 -8 5 -19 10 -25 10 -5
0 -3 -5 5 -10z"/>
<path d="M6346 6203 c11 -10 25 -27 32 -38 10 -18 11 -18 9 7 -1 15 -6 28 -12
29 -5 0 -19 5 -30 11 -19 9 -19 8 1 -9z"/>
<path d="M2130 9075 c-124 -29 -425 -98 -670 -154 -245 -56 -463 -106 -485
-111 -22 -6 -159 -37 -305 -70 -437 -99 -436 -99 -429 -118 2 -5 56 3 119 18
109 26 696 161 1420 326 179 41 387 89 463 106 75 17 136 36 134 42 -2 5 -7
11 -13 12 -5 1 -110 -22 -234 -51z"/>
<path d="M38 8597 c-21 -6 -38 -16 -38 -24 0 -16 0 -16 56 -2 25 6 43 16 41
22 -5 15 -17 16 -59 4z"/>
<path d="M3970 8490 c-13 -8 -13 -10 2 -10 9 0 20 5 23 10 8 13 -5 13 -25 0z"/>
<path d="M3721 8403 c-17 -65 -122 -566 -119 -568 2 -2 73 -17 158 -35 85 -18
161 -35 167 -37 16 -6 12 -23 78 292 31 149 59 280 62 291 5 24 23 19 -217 70
-63 13 -115 24 -117 24 -1 0 -7 -17 -12 -37z"/>
<path d="M5 8005 c1 -44 6 -89 10 -99 5 -12 5 -17 -2 -13 -13 8 -14 -194 0
-210 6 -9 6 -13 -2 -13 -8 0 -11 -1006 -11 -3835 l0 -3835 960 0 960 0 0 24
c0 14 5 28 11 32 8 4 9 -4 4 -27 -7 -33 -6 -33 10 -14 14 17 16 17 11 3 -3
-11 0 -18 9 -18 11 0 11 7 -2 40 -9 22 -19 37 -23 35 -12 -8 -43 33 -34 46 5
9 10 5 16 -11 5 -12 10 -21 13 -19 8 9 -61 169 -70 162 -4 -5 -6 -1 -3 7 7 20
-36 123 -46 113 -5 -5 -5 3 -1 16 5 17 4 21 -5 16 -7 -4 -10 -2 -9 6 6 28 -12
71 -26 65 -8 -3 -15 -3 -15 0 0 2 10 9 23 14 22 9 22 9 -3 10 l-25 1 24 10
c18 7 27 6 33 -3 8 -10 11 -10 15 0 2 6 10 9 15 6 7 -5 8 -2 3 6 -6 10 -4 12
8 7 9 -3 70 16 139 44 68 28 131 53 141 56 9 3 17 11 17 17 0 6 14 17 32 24
17 6 29 14 26 18 -4 3 -15 1 -26 -5 -16 -8 -21 -7 -26 6 -4 9 -4 18 -1 21 3 3
5 0 5 -6 0 -7 8 -12 18 -12 12 0 14 2 4 8 -7 5 13 8 47 8 33 0 58 -3 55 -8 -3
-5 -22 -7 -42 -4 -21 3 -31 2 -23 -1 10 -4 2 -13 -25 -30 -28 -18 -32 -23 -14
-18 14 4 31 12 39 18 7 6 19 12 27 13 8 1 46 15 85 30 l70 28 -26 14 c-15 7
-29 11 -32 8 -3 -3 5 -10 18 -15 16 -7 18 -10 7 -10 -9 -1 -22 -3 -30 -4 -7
-2 -10 -2 -5 0 4 3 4 10 0 16 -15 24 -13 47 5 47 15 0 15 -2 2 -11 -12 -8 -9
-9 10 -4 38 10 104 13 90 5 -9 -6 -9 -9 1 -13 8 -4 2 -4 -12 -1 -29 6 -49 -10
-25 -19 21 -8 146 44 146 61 0 10 7 12 28 7 24 -5 25 -5 10 7 -25 19 -27 42
-3 43 11 0 23 -4 28 -10 4 -7 10 -6 15 1 4 6 29 10 56 9 l49 -2 54 -135 54
-135 85 -7 c46 -4 88 -5 93 -1 5 3 11 0 13 -5 4 -13 139 -16 185 -5 19 4 38 3
50 -5 15 -9 10 -10 -24 -6 -23 3 -44 2 -47 -3 -6 -10 109 -25 124 -16 6 3 10
-1 10 -10 0 -9 5 -13 10 -10 5 3 10 2 10 -4 0 -5 3 -18 7 -28 4 -10 -4 -5 -19
12 -20 23 -28 26 -31 15 -3 -8 -12 -114 -22 -235 -9 -121 -19 -235 -22 -252
l-5 -33 1621 0 1621 0 0 2560 0 2560 -21 0 c-14 0 -19 5 -17 18 2 10 11 16 21
14 15 -3 17 12 17 161 l0 163 -33 16 -33 16 -34 -55 c-167 -264 -504 -358
-781 -218 -38 19 -72 30 -79 25 -17 -11 3 -22 27 -14 13 4 14 3 5 -4 -10 -7
-5 -11 20 -16 26 -5 30 -9 18 -16 -12 -8 -10 -10 10 -11 16 -1 19 -3 8 -6 -9
-2 -26 1 -37 6 -13 7 -22 8 -26 1 -3 -5 -12 -10 -18 -10 -7 0 -4 5 6 11 20 12
14 29 -11 29 -13 0 -14 -2 -4 -9 11 -7 11 -9 0 -14 -10 -3 -14 3 -14 22 1 14
4 31 8 37 4 6 -6 24 -22 39 -17 16 -30 25 -30 19 0 -5 -5 -2 -10 6 -6 10 -10
-712 -10 -2047 0 -1644 3 -2063 13 -2063 7 0 4 -7 -7 -15 -17 -13 -260 -15
-1905 -13 l-1886 3 1885 2 c1236 2 1887 6 1894 13 7 7 -663 10 -1999 9 -1106
0 -2003 -3 -1995 -6 63 -23 79 -95 33 -141 -15 -15 -26 -34 -24 -42 2 -12 -1
-11 -16 3 -11 9 -26 17 -34 17 -12 0 -11 -2 1 -10 11 -7 5 -8 -20 -4 -42 8
-51 14 -21 14 13 0 20 4 16 11 -4 6 -14 8 -22 5 -8 -3 -12 -2 -9 3 3 5 -41 32
-99 59 -57 28 -110 60 -117 71 -7 12 -21 21 -31 21 -40 0 5 -39 93 -80 50 -24
90 -50 90 -57 0 -10 7 -12 19 -8 11 3 23 0 27 -6 5 -8 2 -10 -8 -6 -9 3 -24
-1 -35 -9 -17 -14 -15 -14 15 -9 17 4 32 2 32 -3 0 -5 -18 -9 -40 -9 -42 0
-48 5 -29 24 14 14 -25 38 -43 27 -6 -4 -8 -3 -5 3 3 5 -26 25 -64 44 -73 35
-82 44 -111 119 -18 44 -18 45 2 62 26 21 26 32 0 18 -15 -8 -20 -8 -20 2 -1
8 -6 5 -15 -6 -10 -13 -13 -36 -11 -69 l4 -49 -21 21 c-18 18 -20 24 -9 41 6
11 12 28 12 38 0 10 12 29 27 43 20 18 25 20 20 7 -4 -10 -2 -18 3 -18 7 0 11
909 12 2538 l3 2537 5 -2535 5 -2535 3 2747 2 2746 -37 -5 c-36 -4 -42 0 -112
66 -40 39 -77 71 -82 71 -4 0 -51 -52 -104 -115 -57 -68 -106 -117 -120 -121
-13 -3 -22 -11 -19 -17 5 -14 -41 -67 -58 -67 -6 0 1 9 16 21 33 26 35 53 4
47 -223 -47 -221 -46 -211 -77 4 -14 3 -14 -6 -1 -10 13 -12 13 -21 0 -5 -8
-10 -10 -10 -4 0 6 7 17 15 24 12 10 13 16 4 26 -6 8 -17 31 -25 51 -11 33
-13 35 -15 13 -1 -21 -3 -19 -10 10 -4 19 -6 51 -3 70 4 32 3 33 -7 13 -7 -13
-16 -23 -22 -23 -5 0 -6 -12 -3 -27 5 -19 4 -24 -3 -14 -11 17 -7 77 8 111 11
23 11 23 6 -10 -4 -27 -2 -31 6 -17 7 13 3 49 -17 137 -15 66 -31 115 -35 109
-5 -8 -9 -8 -14 1 -4 7 -2 16 5 20 12 7 2 57 -85 425 -13 55 -31 137 -41 183
-10 45 -20 82 -23 82 -3 0 -7 17 -9 38 -1 20 -13 80 -26 132 l-24 95 3 -80z
m35 -124 c0 -19 -13 -5 -16 17 -1 9 -5 35 -8 57 -6 36 -5 35 8 -10 8 -27 15
-56 16 -64z m-15 -63 c-6 -17 -4 -20 9 -15 13 5 16 -1 16 -33 0 -22 -4 -40 -9
-40 -14 0 -18 10 -26 63 -5 33 -4 47 5 47 7 0 9 -8 5 -22z m59 -130 c8 -38 16
-81 21 -110 2 -15 9 -36 15 -47 5 -11 6 -22 1 -25 -10 -7 -20 -66 -14 -83 7
-18 23 -16 23 2 0 8 -4 15 -9 15 -5 0 -6 10 -3 22 5 21 6 21 19 -10 11 -26 11
-38 0 -64 l-13 -31 -16 24 c-8 14 -18 45 -21 69 -5 35 -4 39 3 20 9 -23 9 -23
7 7 -2 18 0 34 5 35 4 2 3 19 -3 38 -6 19 -13 58 -16 85 -3 28 -10 56 -15 63
-7 8 -7 12 1 12 6 0 13 -10 15 -22z m3 -160 c-3 -7 -5 -2 -5 12 0 14 2 19 5
13 2 -7 2 -19 0 -25z m0 -170 c-3 -8 -6 -5 -6 6 -1 11 2 17 5 13 3 -3 4 -12 1
-19z m106 -175 c-3 -7 0 -13 6 -13 8 0 8 -7 0 -24 -8 -17 -8 -29 0 -44 6 -11
11 -29 11 -39 -1 -10 -12 16 -26 57 -17 49 -22 76 -15 78 6 2 11 13 11 25 0
14 -3 18 -8 10 -4 -7 -8 14 -8 45 l-1 57 17 -70 c10 -38 15 -75 13 -82z m-13
-94 c0 -11 5 -29 10 -40 6 -10 7 -19 3 -19 -9 0 -33 48 -33 67 0 7 5 13 10 13
6 0 10 -9 10 -21z m42 -51 c-6 -6 -7 0 -4 19 5 21 7 23 10 9 2 -10 0 -22 -6
-28z m25 -80 c-3 -7 -5 -2 -5 12 0 14 2 19 5 13 2 -7 2 -19 0 -25z m0 -55 c-3
-10 -5 -4 -5 12 0 17 2 24 5 18 2 -7 2 -21 0 -30z m704 -60 c41 -36 75 -74 77
-83 1 -8 -12 -29 -30 -45 -18 -17 -25 -21 -15 -9 19 23 22 50 7 59 -6 4 -8 10
-6 14 3 4 1 13 -4 21 -7 11 -19 11 -72 1 -34 -7 -71 -15 -82 -18 -15 -4 -13 3
13 40 35 51 37 59 16 51 -8 -4 -15 -2 -15 3 0 10 21 33 30 33 4 0 40 -30 81
-67z m-667 -105 c5 -22 3 -26 -9 -22 -15 6 -20 35 -8 47 8 9 9 8 17 -25z m-37
-15 c-3 -10 -5 -4 -5 12 0 17 2 24 5 18 2 -7 2 -21 0 -30z m319 -31 c-12 -13
-19 -13 -38 -4 -22 12 -22 12 5 7 16 -3 26 -2 23 3 -3 5 2 9 10 9 13 0 13 -2
0 -15z m-83 -44 c-2 -5 3 -8 11 -8 9 0 16 7 16 15 0 8 -4 15 -10 15 -5 0 -10
5 -10 10 0 6 8 5 20 -2 11 -7 20 -18 20 -25 0 -7 5 -13 10 -13 6 0 6 -7 -2
-19 -10 -16 -14 -17 -25 -5 -21 20 -25 17 -12 -7 9 -18 7 -25 -11 -43 l-21
-21 12 28 c10 23 10 30 0 36 -7 5 -12 11 -12 15 3 20 -1 26 -16 27 -17 1 -17
2 0 6 9 2 17 12 18 21 0 14 2 13 8 -3 5 -11 7 -23 4 -27z m-43 22 c-8 -5 -22
-9 -30 -9 -10 0 -8 3 5 9 27 12 43 12 25 0z m224 -22 c-1 -13 -3 -29 -3 -35
-1 -15 -11 -16 -31 -3 -12 7 -11 13 10 34 13 15 24 26 25 26 1 0 1 -10 -1 -22z
m-219 -8 c16 -7 14 -8 -12 -7 -18 1 -33 5 -33 10 0 9 19 8 45 -3z m-29 -106
c0 -9 5 -19 12 -21 8 -3 12 1 10 12 -2 10 3 19 10 21 7 1 8 0 2 -3 -5 -2 -7
-9 -4 -15 4 -5 -11 -29 -33 -51 -22 -23 -65 -73 -97 -112 -31 -38 -68 -82 -81
-96 -14 -14 -25 -32 -25 -41 0 -19 42 -56 58 -50 7 2 11 -2 10 -10 -2 -7 4
-12 14 -10 9 1 22 -6 30 -15 7 -10 32 -33 56 -52 23 -18 39 -37 36 -43 -4 -6
2 -8 17 -3 23 7 24 7 5 -11 -13 -14 -20 -16 -23 -6 -3 6 -8 10 -13 7 -4 -3 -6
4 -3 16 4 14 1 20 -8 19 -38 -6 -66 1 -66 15 0 11 4 12 11 5 5 -5 16 -10 24
-10 9 0 5 8 -11 20 -14 11 -32 17 -41 14 -11 -4 -19 2 -26 21 -8 20 -15 25
-27 20 -10 -3 -14 -3 -10 1 3 4 -1 14 -11 23 -38 36 -44 49 -32 72 10 17 9 20
-2 17 -7 -3 -19 -15 -25 -29 -10 -18 -13 -20 -13 -6 0 21 54 77 75 77 8 0 12
6 9 14 -3 7 2 20 10 29 9 9 16 20 16 26 0 6 7 11 17 11 14 0 14 -2 -2 -20 -22
-25 -17 -33 9 -14 15 11 20 25 19 61 l-1 48 8 -40 c4 -22 8 -35 9 -28 0 7 19
31 41 53 38 39 51 58 30 45 -5 -3 -8 1 -5 9 3 9 7 23 10 31 6 20 13 19 11 -1z
m412 -25 c-28 -37 -37 -36 -74 3 l-29 32 29 -18 c16 -10 26 -14 22 -8 -3 5 1
13 10 16 10 4 13 2 8 -7 -6 -9 -5 -9 8 0 8 7 18 10 21 6 4 -3 7 -1 7 6 0 7 4
9 10 6 6 -4 1 -18 -12 -36z m-488 -25 c6 -14 7 -31 3 -37 -7 -12 -21 16 -22
46 -1 25 8 21 19 -9z m213 8 c15 -17 14 -18 -18 -19 -37 -1 -43 5 -23 25 16
16 22 15 41 -6z m142 -121 c4 -9 -9 -29 -31 -50 -20 -20 -33 -29 -28 -21 13
23 15 92 2 107 -7 9 1 7 20 -4 18 -10 34 -24 37 -32z m206 34 c27 -11 30 -14
12 -15 -12 0 -25 5 -29 11 -4 6 -19 9 -36 5 -18 -3 -27 -2 -23 4 9 14 37 12
76 -5z m-21 -15 c0 -5 -4 -10 -10 -10 -5 0 -10 5 -10 10 0 6 5 10 10 10 6 0
10 -4 10 -10z m86 -11 c3 -6 22 -9 40 -7 35 4 46 -5 18 -16 -26 -10 -40 -7
-64 14 -13 11 -18 20 -12 20 6 0 14 -5 18 -11z m-6 -39 c0 -5 -7 -10 -15 -10
-8 0 -15 5 -15 10 0 6 7 10 15 10 8 0 15 -4 15 -10z m-782 -44 c-7 -8 -15 -12
-17 -11 -5 6 10 25 20 25 5 0 4 -6 -3 -14z m138 -51 c-3 -8 -1 -15 5 -15 6 0
8 -4 4 -9 -3 -5 2 -17 11 -25 23 -24 2 -19 -29 6 -25 20 -26 23 -10 40 20 22
27 23 19 3z m622 -32 c-3 -30 -25 -42 -34 -19 -9 22 2 46 21 46 12 0 15 -8 13
-27z m-748 -13 c0 -5 -4 -10 -10 -10 -5 0 -10 5 -10 10 0 6 5 10 10 10 6 0 10
-4 10 -10z m37 -33 c12 -13 -7 -20 -21 -8 -11 9 -15 9 -18 0 -4 -13 -28 -4
-28 10 0 9 57 7 67 -2z m668 -7 c3 -5 1 -10 -4 -10 -6 0 -11 5 -11 10 0 6 2
10 4 10 3 0 8 -4 11 -10z m65 0 c0 -5 -5 -10 -11 -10 -5 0 -7 5 -4 10 3 6 8
10 11 10 2 0 4 -4 4 -10z m-467 -44 c-15 -20 -33 -36 -39 -36 -5 0 -23 13 -39
30 -28 29 -28 29 -4 25 13 -3 25 -9 27 -14 3 -10 58 14 68 30 3 6 8 8 11 5 3
-2 -8 -21 -24 -40z m367 14 c-6 -11 -14 -20 -18 -20 -4 0 -19 -11 -34 -24 -29
-24 -36 -50 -18 -61 6 -3 10 -13 10 -21 0 -8 -4 -14 -10 -14 -5 0 -10 7 -10
15 0 9 -9 15 -25 15 l-25 0 32 37 c71 80 122 118 98 73z m-640 -30 c24 -8 23
-8 -8 -9 -42 -1 -32 -21 11 -22 18 0 26 -3 19 -6 -7 -3 -29 -2 -48 1 -25 5
-34 12 -34 26 0 21 16 24 60 10z m225 -100 c3 0 3 5 0 10 -7 12 31 12 59 1 18
-7 18 -8 3 -14 -9 -3 -17 -2 -17 3 0 6 -5 10 -11 10 -5 0 -8 -4 -5 -8 4 -7
-16 -8 -61 -3 -7 0 -13 6 -13 11 0 7 6 7 19 0 11 -5 22 -10 26 -10z m-85 -35
c0 -28 -4 -35 -20 -35 -11 0 -20 5 -20 10 0 6 4 10 10 10 5 0 12 11 16 25 9
35 14 31 14 -10z m215 16 c3 -5 1 -12 -5 -16 -5 -3 -10 1 -10 9 0 18 6 21 15
7z m81 -31 c18 0 18 -14 -1 -30 -12 -10 -15 -10 -15 2 0 10 -11 13 -40 10 -25
-3 -40 0 -40 7 0 6 16 11 35 11 21 0 35 5 36 13 0 10 2 10 6 0 2 -7 11 -13 19
-13z m-43 -37 c-7 -2 -19 -2 -25 0 -7 3 -2 5 12 5 14 0 19 -2 13 -5z m4898
-620 c13 -15 16 -21 7 -14 -17 13 -18 -84 -18 -1996 0 -1593 3 -2012 13 -2022
10 -11 9 -13 -6 -7 -10 3 -23 6 -28 6 -10 0 -13 4043 -2 4053 9 9 6 11 34 -20z
m172 -135 c-2 -5 -11 -4 -18 2 -7 6 -20 8 -28 4 -9 -3 -22 -2 -29 2 -20 13 43
22 64 10 9 -6 14 -14 11 -18z m-76 -40 c-3 -7 -5 -2 -5 12 0 14 2 19 5 13 2
-7 2 -19 0 -25z m108 22 c-3 -5 -14 -10 -23 -10 -15 0 -15 2 -2 10 20 13 33
13 25 0z m-58 -15 c0 -8 -6 -15 -13 -15 -8 0 -11 6 -8 15 4 8 9 15 13 15 4 0
8 -7 8 -15z m88 -5 c3 -6 -1 -7 -9 -4 -18 7 -21 14 -7 14 6 0 13 -4 16 -10z
m72 -54 c30 -28 29 -33 -8 -28 -21 3 -29 9 -25 19 3 7 -1 16 -9 19 -8 4 -15
10 -15 15 0 12 32 -1 57 -25z m583 -6 c0 -5 -9 -10 -19 -10 -11 0 -23 -4 -26
-10 -3 -5 -25 -9 -48 -9 -30 2 -34 3 -14 6 15 2 27 8 27 13 0 5 15 11 33 13
17 2 35 5 40 5 4 1 7 -2 7 -8z m-277 -57 c-24 -2 -62 -2 -85 0 -24 2 -5 4 42
4 47 0 66 -2 43 -4z m0 -40 c-24 -2 -62 -2 -85 0 -24 2 -5 4 42 4 47 0 66 -2
43 -4z m-603 -3733 c0 -5 -7 -10 -16 -10 -8 0 -12 5 -9 10 3 6 10 10 16 10 5
0 9 -4 9 -10z m-4448 -47 c7 -9 7 -18 -2 -28 -6 -8 -9 -19 -5 -25 3 -5 1 -10
-5 -10 -6 0 -8 -5 -4 -12 4 -7 3 -8 -5 -4 -6 4 -9 11 -6 16 3 4 -1 11 -7 14
-10 5 -10 7 -1 12 10 4 10 11 2 27 -9 20 -9 20 4 5 20 -25 29 -11 11 16 -8 13
-11 26 -7 30 5 4 10 0 12 -11 2 -10 8 -24 13 -30z m588 13 c0 -9 -30 -14 -35
-6 -4 6 3 10 14 10 12 0 21 -2 21 -4z m-680 -66 c0 -36 -24 -41 -26 -5 -1 14
2 22 7 19 5 -3 9 0 9 5 0 6 2 11 5 11 3 0 5 -13 5 -30z m116 14 c-4 -12 -1
-14 13 -9 24 7 39 -13 16 -21 -20 -8 -50 19 -41 35 11 17 19 13 12 -5z m564
-45 c0 -5 -7 -9 -15 -9 -8 0 -15 7 -15 15 0 9 6 12 15 9 8 -4 15 -10 15 -15z
m-57 -47 c-3 -12 -13 -22 -22 -22 -14 0 -14 2 -1 10 13 9 13 10 0 10 -12 1
-11 4 4 15 24 18 27 16 19 -13z m-333 8 c0 -5 -4 -10 -10 -10 -5 0 -10 5 -10
10 0 6 5 10 10 10 6 0 10 -4 10 -10z m-35 -10 c-3 -5 2 -10 11 -10 10 0 15 -2
12 -5 -9 -9 -58 6 -52 16 3 5 12 9 20 9 8 0 12 -4 9 -10z m261 -17 c-10 -10
-19 5 -10 18 6 11 8 11 12 0 2 -7 1 -15 -2 -18z m184 7 c0 -5 -8 -10 -17 -10
-15 0 -16 2 -3 10 19 12 20 12 20 0z m-419 -30 c5 0 9 -5 9 -11 0 -8 -30 -8
-70 0 -3 1 2 6 10 11 8 5 21 8 28 5 8 -3 18 -5 23 -5z m339 -1 c0 -6 -9 -13
-20 -16 -11 -3 -17 -10 -13 -16 4 -6 -2 -8 -15 -5 -12 4 -25 2 -28 -3 -3 -5 2
-9 10 -9 8 0 18 -4 21 -10 4 -6 -7 -10 -27 -10 -22 0 -29 3 -20 9 8 4 13 11
12 15 -3 12 5 21 35 38 35 20 45 22 45 7z m-417 -20 c-4 -15 -12 -20 -28 -16
-16 3 -22 0 -18 -9 3 -9 14 -12 28 -8 13 3 26 1 29 -5 5 -7 -11 -11 -48 -11
-30 0 -57 4 -60 9 -3 4 6 7 20 5 20 -2 24 1 19 17 -5 15 -1 19 19 19 14 0 28
5 31 10 10 16 14 11 8 -11z m152 -38 c-8 -13 -45 -15 -45 -2 0 5 9 7 20 4 12
-3 20 0 20 8 0 7 3 10 6 6 3 -3 3 -10 -1 -16z m-328 -6 c24 1 49 -3 55 -8 9
-6 6 -7 -10 -4 -12 3 -20 1 -16 -4 3 -5 13 -9 22 -10 12 0 13 -2 4 -6 -8 -3
-29 3 -47 13 -31 16 -34 16 -50 1 -21 -22 -22 -21 -19 6 4 33 4 33 12 22 4 -6
26 -10 49 -10z m-141 -29 c8 -8 11 -22 8 -31 -6 -14 -8 -14 -20 2 -14 18 -19
43 -8 43 3 0 12 -6 20 -14z m334 -13 c0 -16 -6 -23 -19 -23 -29 0 -35 18 -9
23 16 3 12 5 -12 6 -56 2 -63 16 -9 17 45 0 49 -2 49 -23z m-195 7 c3 -6 -1
-7 -9 -4 -18 7 -21 14 -7 14 6 0 13 -4 16 -10z m-90 -19 c-3 -6 2 -14 11 -19
15 -9 15 -10 -4 -16 -26 -9 -29 -38 -6 -60 8 -9 10 -16 4 -16 -6 0 -14 8 -17
18 -6 14 -8 13 -14 -8 -3 -15 -6 0 -6 37 0 48 4 63 16 66 9 3 17 5 19 6 2 0 1
-3 -3 -8z m43 -36 c-6 -14 -13 -23 -15 -21 -5 5 15 46 22 46 3 0 -1 -11 -7
-25z m-383 5 c-3 -5 -27 -10 -53 -10 -43 0 -45 -1 -26 -15 19 -16 19 -16 -1
-13 -37 6 -23 33 20 39 63 10 67 10 60 -1z m65 0 c0 -5 -2 -10 -4 -10 -3 0 -8
5 -11 10 -3 6 -1 10 4 10 6 0 11 -4 11 -10z m603 -11 c6 -9 7 -25 2 -35 -6
-17 -9 -15 -16 10 -4 16 -14 33 -21 38 -9 7 -8 8 6 6 10 -2 23 -10 29 -19z
m1274 -3 l21 -24 -20 -22 c-16 -17 -22 -19 -29 -8 -5 7 -9 18 -9 23 0 6 4 3
10 -5 17 -28 24 1 6 30 -21 36 -8 39 21 6z m33 14 c0 -5 -4 -10 -9 -10 -6 0
-13 5 -16 10 -3 6 1 10 9 10 9 0 16 -4 16 -10z m246 -2 c4 -6 3 -8 -3 -5 -6 4
-13 0 -16 -8 -4 -10 -1 -12 11 -8 14 5 15 3 5 -7 -10 -11 -15 -11 -28 0 -14
11 -13 14 2 26 22 16 20 16 29 2z m-1978 -27 c-1 -19 -7 -27 -15 -24 -19 7
-17 53 2 53 11 0 15 -9 13 -29z m-194 -14 c-1 -12 -3 -25 -3 -29 -1 -10 -13
-10 -30 1 -21 14 -6 61 17 54 12 -3 18 -12 16 -26z m-84 13 c0 -5 -4 -10 -10
-10 -5 0 -10 5 -10 10 0 6 5 10 10 10 6 0 10 -4 10 -10z m395 -9 c3 -5 1 -12
-5 -16 -5 -3 -10 1 -10 9 0 18 6 21 15 7z m-267 -33 c9 0 25 -1 35 0 9 1 17
-5 17 -13 0 -17 -45 -21 -55 -4 -4 6 -13 8 -19 6 -9 -4 -11 3 -7 21 3 19 6 22
9 10 2 -10 11 -19 20 -20z m-198 -9 c-41 -17 -87 -37 -103 -45 -15 -8 -32 -12
-39 -8 -7 4 -8 3 -4 -4 7 -12 -12 -17 -44 -12 -8 1 -12 -2 -8 -6 9 -8 -70 -48
-89 -45 -14 2 -18 -15 -5 -21 5 -1 3 -16 -4 -33 -12 -28 -12 -25 -10 35 3 65
3 65 35 68 17 2 31 8 31 13 0 6 5 7 10 4 6 -3 10 -1 10 5 0 6 5 8 10 5 6 -3
10 -1 10 5 0 6 4 8 10 5 6 -3 10 -1 10 4 0 6 7 11 16 11 8 0 13 -4 10 -9 -3
-4 7 -7 22 -6 41 3 44 4 37 15 -5 8 -11 7 -21 -1 -8 -6 -17 -9 -21 -6 -3 4 2
10 11 13 14 5 15 9 4 16 -9 7 -7 8 7 2 11 -4 36 -9 55 -11 28 -3 32 -2 20 7
-12 9 -11 10 6 5 13 -3 26 1 34 10 7 8 27 15 44 15 26 -1 18 -6 -44 -31z
m-267 -2 c3 -8 -5 -14 -24 -15 -22 -2 -27 1 -23 13 7 18 40 20 47 2z m1317 3
c0 -5 -16 -10 -35 -10 -19 0 -35 5 -35 10 0 6 16 10 35 10 19 0 35 -4 35 -10z
m1355 -17 c0 -12 -4 -25 -9 -30 -5 -5 -6 -3 -2 5 9 16 -20 46 -35 36 -7 -4 -9
-3 -6 3 4 6 17 10 30 9 16 -1 23 -7 22 -23z m-1535 -6 c0 -5 11 -6 25 -3 14 4
37 3 51 0 24 -6 25 -8 8 -17 -29 -16 -142 -17 -155 -1 -16 20 -29 17 -29 -6 0
-11 -4 -20 -10 -20 -16 0 -12 18 9 39 19 19 101 25 101 8z m-433 -19 c-3 -8
-6 -5 -6 6 -1 11 2 17 5 13 3 -3 4 -12 1 -19z m684 2 c16 -9 19 -20 17 -70 -3
-62 -12 -76 -24 -37 -4 12 -15 33 -25 46 -38 49 -18 87 32 61z m-698 -20 c3
-11 1 -18 -4 -14 -5 3 -9 12 -9 20 0 20 7 17 13 -6z m-37 -69 c5 -57 -6 -101
-25 -101 -12 0 -9 154 3 162 15 10 17 5 22 -61z m598 58 c-5 -9 1 -10 22 -5
21 5 25 4 14 -4 -12 -8 -13 -11 -1 -19 9 -6 10 -11 2 -15 -6 -4 -9 -12 -5 -17
4 -6 11 -6 20 2 8 7 14 7 14 1 0 -16 -31 -23 -47 -11 -10 9 -11 14 -2 19 8 6
8 9 0 14 -17 11 -26 -24 -12 -46 6 -10 9 -23 6 -28 -3 -6 0 -8 7 -5 8 3 24
-14 41 -42 15 -27 52 -83 82 -127 38 -53 55 -88 55 -109 0 -41 -35 -77 -74
-77 -17 0 -38 -5 -46 -10 -11 -7 -5 -10 23 -10 23 0 36 -4 32 -10 -9 -15 -52
-12 -69 5 -8 9 -19 14 -23 13 -13 -5 -16 44 -4 52 8 4 5 14 -9 30 -18 20 -20
21 -26 5 -5 -13 -9 -14 -15 -3 -6 10 -11 10 -21 0 -6 -6 -19 -12 -28 -12 -8 0
-2 7 14 15 15 8 32 13 36 10 5 -3 12 -1 15 5 4 6 -19 49 -49 97 -31 47 -56 92
-56 100 0 28 21 53 58 68 29 13 34 18 22 25 -18 11 -61 13 -76 2 -5 -4 -17
-18 -26 -30 -22 -32 -12 -63 51 -156 29 -42 49 -81 46 -87 -5 -7 -11 -6 -20 1
-11 9 -12 7 -8 -11 4 -15 3 -20 -5 -15 -7 4 -12 14 -12 22 0 8 -7 17 -15 20
-8 4 -15 11 -15 16 0 6 -12 24 -26 41 -19 23 -22 32 -12 38 11 7 11 12 0 30
-7 11 -14 40 -14 62 0 23 -5 45 -10 48 -7 4 -6 14 1 28 7 12 9 26 6 31 -3 6 1
10 10 10 9 0 14 -4 10 -9 -3 -5 0 -13 6 -16 6 -4 13 2 16 14 3 12 11 20 17 18
6 -2 16 3 21 10 6 8 27 18 45 23 19 4 36 8 38 9 2 1 0 -4 -4 -10z m-172 -35
c-4 -29 -7 -33 -14 -21 -5 11 -5 24 2 37 15 28 17 25 12 -16z m838 32 c0 -11
-19 -15 -25 -6 -3 5 1 10 9 10 9 0 16 -2 16 -4z m827 -12 c14 -14 14 -17 -2
-32 -16 -16 -17 -16 -10 7 6 20 4 23 -9 18 -16 -6 -22 4 -9 16 9 10 13 9 30
-9z m-1697 -24 c0 -6 -2 -10 -4 -10 -2 0 -12 -3 -22 -7 -12 -4 -15 -3 -10 5 4
7 3 12 -3 12 -6 0 -8 7 -5 15 5 11 11 12 25 4 10 -5 19 -14 19 -19z m-670 15
c0 -8 -71 -38 -77 -32 -3 3 10 13 28 21 37 16 49 19 49 11z m1507 -17 c-3 -8
-6 -5 -6 6 -1 11 2 17 5 13 3 -3 4 -12 1 -19z m58 12 c3 -6 -1 -13 -9 -16 -9
-3 -16 -11 -16 -18 0 -18 -52 -38 -64 -25 -8 7 -7 10 4 7 16 -3 60 35 60 52 0
13 17 13 25 0z m-1427 -45 c-1 -28 -6 -37 -24 -41 -41 -10 -44 0 -12 39 17 20
32 37 34 37 2 0 3 -16 2 -35z m-228 7 c0 -7 -73 -42 -88 -42 -5 1 76 48 86 50
1 0 2 -3 2 -8z m397 -14 c-3 -8 -6 -5 -6 6 -1 11 2 17 5 13 3 -3 4 -12 1 -19z
m1063 -8 c-20 -13 -33 -13 -25 0 3 6 14 10 23 10 15 0 15 -2 2 -10z m95 -12
c6 -6 -1 -7 -20 -3 -19 4 -25 3 -17 -2 17 -13 -33 -36 -60 -27 -18 5 -17 7 9
30 27 23 64 24 88 2z m1085 6 c0 -14 -8 -15 -47 -10 -38 4 -43 4 -24 -4 13 -6
35 -11 48 -12 12 -1 23 -6 23 -10 0 -8 -56 0 -80 12 -8 5 -29 6 -45 4 l-30 -4
30 11 c87 31 125 35 125 13z m34 1 c-4 -8 -7 -15 -9 -15 -2 0 -5 7 -9 15 -3 9
0 15 9 15 9 0 12 -6 9 -15z m56 6 c-14 -4 -25 -13 -25 -20 0 -17 -42 -34 -50
-21 -4 6 3 10 14 10 14 0 21 6 21 18 0 13 8 18 33 19 28 1 29 1 7 -6z m-213
-7 c-3 -3 -12 -4 -19 -1 -8 3 -5 6 6 6 11 1 17 -2 13 -5z m-2617 -14 c0 -5 -7
-10 -15 -10 -8 0 -15 5 -15 10 0 6 7 10 15 10 8 0 15 -4 15 -10z m250 -6 c0
-8 -5 -12 -10 -9 -6 4 -8 11 -5 16 9 14 15 11 15 -7z m2640 6 c0 -5 -15 -10
-32 -10 -25 0 -29 3 -18 10 20 13 50 13 50 0z m-1680 -20 c0 -18 -2 -19 -20
-8 -11 7 -20 16 -20 20 0 5 9 8 20 8 13 0 20 -7 20 -20z m-1000 -16 c0 -14 -3
-14 -15 -4 -8 7 -15 14 -15 16 0 2 7 4 15 4 8 0 15 -7 15 -16z m686 -24 c-2
-22 -1 -40 4 -40 15 0 19 -28 5 -34 -9 -3 -12 0 -9 8 3 8 1 17 -5 21 -18 10
-13 85 5 85 2 0 2 -18 0 -40z m-566 20 c0 -5 -10 -10 -22 -9 -22 0 -22 1 -3 9
11 5 21 9 23 9 1 1 2 -3 2 -9z m-539 -38 c-6 -2 -11 -8 -11 -14 0 -6 7 -8 14
-5 10 4 13 1 10 -8 -3 -7 -12 -16 -20 -19 -9 -3 -12 -1 -9 5 4 5 1 16 -5 24
-10 12 -10 15 0 15 7 0 10 7 6 16 -6 15 -4 15 10 3 10 -8 12 -15 5 -17z m455
-10 c-4 -3 -11 0 -16 8 -15 24 -11 33 6 15 9 -9 13 -19 10 -23z m231 -39 c-14
-13 -23 9 -18 44 l4 38 10 -38 c5 -21 7 -41 4 -44z m302 55 c0 -13 -4 -32 -9
-43 -7 -15 -9 -10 -9 23 -1 23 4 42 9 42 6 0 10 -10 9 -22z m477 5 c12 -16 15
-16 24 -3 8 12 10 11 10 -6 0 -29 -40 -40 -57 -17 -16 21 -17 43 -2 43 7 0 18
-8 25 -17z m195 0 c-18 -12 -23 -12 -35 -1 -11 12 -8 14 21 15 33 1 34 0 14
-14z m-1021 -3 c0 -5 -6 -10 -12 -10 -9 0 -10 -3 -2 -8 15 -10 13 -42 -3 -42
-14 0 -17 27 -7 54 7 18 24 22 24 6z m965 0 c3 -5 2 -10 -4 -10 -5 0 -13 5
-16 10 -3 6 -2 10 4 10 5 0 13 -4 16 -10z m-1485 -10 c0 -5 -2 -10 -4 -10 -3
0 -8 5 -11 10 -3 6 -1 10 4 10 6 0 11 -4 11 -10z m260 -9 c0 -5 9 -13 20 -16
11 -3 20 -11 20 -16 0 -5 -9 -9 -20 -9 -11 0 -20 5 -20 10 0 6 -7 10 -16 10
-9 0 -14 -6 -11 -13 3 -9 -5 -12 -29 -9 -35 4 -38 22 -3 22 11 0 22 7 25 15 7
16 34 21 34 6z m637 -33 c-3 -7 -5 -2 -5 12 0 14 2 19 5 13 2 -7 2 -19 0 -25z
m-927 -4 c73 -14 74 -15 59 -25 -24 -15 -89 -11 -89 6 0 11 -7 14 -25 9 -14
-3 -25 -2 -25 3 0 17 14 24 35 18 11 -4 31 -9 45 -11z m3157 -30 c4 4 1 12 -7
17 -13 9 -13 10 0 7 8 -3 15 -18 16 -37 l2 -33 -29 28 c-32 31 -40 57 -9 29
11 -10 23 -15 27 -11z m-2297 -6 c0 -18 -2 -20 -9 -8 -6 8 -7 18 -5 22 9 14
14 9 14 -14z m550 12 c0 -5 -4 -10 -10 -10 -5 0 -10 5 -10 10 0 6 5 10 10 10
6 0 10 -4 10 -10z m102 -4 c3 5 3 4 2 -3 -4 -17 19 -77 33 -85 6 -5 8 -18 5
-30 -6 -23 -6 -23 -13 2 l-7 25 -7 -23 c-9 -29 -25 -10 -24 28 l1 25 8 -25 c8
-24 8 -24 9 -2 1 12 -6 39 -14 59 -17 39 -19 55 -6 34 5 -7 11 -9 13 -5z
m-1406 -11 c14 -13 12 -15 -16 -15 -26 0 -29 2 -18 15 16 18 16 18 34 0z m946
-27 c15 -14 14 -15 -10 -14 -22 1 -27 6 -29 30 -2 24 0 27 10 14 7 -8 20 -21
29 -30z m-454 10 c4 -19 -29 -29 -52 -16 -9 5 -16 16 -16 24 0 21 64 14 68 -8z
m862 3 c12 -23 3 -51 -15 -51 -18 0 -32 43 -16 48 6 2 9 8 5 13 -3 5 -1 9 5 9
6 0 15 -9 21 -19z m-738 -19 c-6 -2 -10 -8 -6 -13 8 -13 -10 -11 -24 3 -19 19
-14 26 16 20 15 -3 21 -7 14 -10z m93 8 c5 -8 -32 -30 -51 -30 -13 0 -1 29 14
33 28 8 31 7 37 -3z m-155 -10 c13 -8 13 -10 -2 -10 -9 0 -20 5 -23 10 -8 13
5 13 25 0z m-583 -6 c-3 -3 -12 -4 -19 -1 -8 3 -5 6 6 6 11 1 17 -2 13 -5z
m50 0 c-3 -3 -12 -4 -19 -1 -8 3 -5 6 6 6 11 1 17 -2 13 -5z m1368 -37 c0 -36
-2 -41 -12 -31 -7 7 -13 15 -13 18 0 7 19 56 22 56 2 0 3 -20 3 -43z m1742 -4
l13 -26 -25 23 c-27 25 -33 42 -12 35 6 -3 18 -17 24 -32z m-2213 15 c7 -8 9
-24 6 -38 l-6 -25 -12 22 c-13 23 -16 53 -6 53 3 0 11 -6 18 -12z m73 -50 c-3
-7 -5 -2 -5 12 0 14 2 19 5 13 2 -7 2 -19 0 -25z m-454 6 c-3 -8 6 -14 24 -17
21 -3 18 -4 -9 -4 -28 1 -38 5 -38 17 0 9 6 17 14 17 8 0 12 -6 9 -13z m-33
-3 c0 -5 -11 -11 -24 -13 -17 -4 -23 -1 -19 9 6 14 43 18 43 4z m175 -1 c-3
-5 1 -10 9 -10 9 0 16 5 16 10 0 6 12 10 26 10 16 0 24 -5 21 -12 -3 -9 -25
-12 -72 -10 -86 3 -124 21 -47 22 33 0 51 -4 47 -10z m417 -39 c-7 -4 -10 -15
-7 -23 3 -8 0 -18 -7 -20 -8 -4 -13 3 -13 18 0 13 3 24 8 24 4 0 7 8 7 17 0
14 3 14 12 5 10 -10 10 -14 0 -21z m2126 -15 c3 -12 -1 -17 -10 -14 -7 3 -15
13 -16 22 -3 12 1 17 10 14 7 -3 15 -13 16 -22z m-1745 -21 c4 -8 3 -16 -1
-19 -4 -3 -9 4 -9 15 -2 23 3 25 10 4z m-93 -29 c0 -15 -21 -26 -52 -26 -20 0
-21 1 -3 20 21 23 55 27 55 6z m125 -36 c-3 -5 1 -10 7 -13 10 -3 10 -7 2 -17
-18 -19 -49 -3 -52 25 -2 33 6 32 19 -1 5 -15 12 -24 15 -21 3 3 0 15 -6 27
-6 12 -8 29 -5 38 6 14 8 13 16 -6 5 -13 7 -28 4 -32z m1708 -2 c5 -53 3 -67
-9 -55 -12 11 -17 107 -7 107 6 0 13 -24 16 -52z m-1968 23 c-3 -5 3 -12 12
-14 13 -3 11 -5 -7 -7 -14 -1 -33 -3 -42 -5 -10 -2 -20 1 -24 6 -3 5 7 9 21 9
15 0 24 4 20 10 -3 6 1 10 10 10 9 0 14 -4 10 -9z m135 -41 c0 -5 -10 -10 -22
-9 -22 0 -22 1 -3 9 11 5 21 9 23 9 1 1 2 -3 2 -9z m-63 -6 c-3 -3 -12 -4 -19
-1 -8 3 -5 6 6 6 11 1 17 -2 13 -5z m1883 -69 c0 -8 -4 -15 -10 -15 -5 0 -10
7 -10 15 0 8 5 15 10 15 6 0 10 -7 10 -15z m-1693 -11 c-3 -3 -12 -4 -19 -1
-8 3 -5 6 6 6 11 1 17 -2 13 -5z"/>
<path d="M31 7764 c0 -11 3 -14 6 -6 3 7 2 16 -1 19 -3 4 -6 -2 -5 -13z"/>
<path d="M175 7190 c-3 -5 -2 -18 4 -27 7 -14 9 -12 8 10 -2 30 -3 31 -12 17z"/>
<path d="M515 6630 c3 -5 8 -10 11 -10 2 0 4 5 4 10 0 6 -5 10 -11 10 -5 0 -7
-4 -4 -10z"/>
<path d="M250 6330 c0 -5 5 -10 10 -10 6 0 10 5 10 10 0 6 -4 10 -10 10 -5 0
-10 -4 -10 -10z"/>
<path d="M233 6300 c-13 -5 -23 -14 -23 -20 0 -15 8 -12 32 10 24 22 23 23 -9
10z"/>
<path d="M5485 3275 c0 -1105 1 -1559 2 -1008 2 551 2 1455 0 2010 -1 554 -2
104 -2 -1002z"/>
<path d="M209 690 c-13 -10 -19 -19 -13 -20 6 0 17 7 24 15 7 8 16 12 21 9 5
-3 9 0 9 5 0 16 -15 13 -41 -9z"/>
<path d="M1370 740 c0 -5 6 -10 14 -10 8 0 18 5 21 10 3 6 -3 10 -14 10 -12 0
-21 -4 -21 -10z"/>
<path d="M1560 707 c0 -23 17 -47 32 -47 4 0 8 7 8 15 0 9 -6 12 -15 9 -11 -4
-15 0 -15 16 0 16 4 20 15 16 8 -3 15 -1 15 4 0 6 -9 10 -20 10 -14 0 -20 -7
-20 -23z"/>
<path d="M1415 690 c3 -5 13 -10 21 -10 8 0 14 5 14 10 0 6 -9 10 -21 10 -11
0 -17 -4 -14 -10z"/>
<path d="M1400 670 c0 -5 5 -10 10 -10 6 0 10 5 10 10 0 6 -4 10 -10 10 -5 0
-10 -4 -10 -10z"/>
<path d="M1454 564 c10 -16 27 -38 36 -49 10 -11 25 -33 34 -50 9 -16 30 -48
46 -70 16 -22 27 -47 24 -56 -3 -11 3 -18 16 -22 35 -9 23 22 -51 127 -39 55
-73 105 -75 111 -3 6 -14 17 -26 24 l-22 14 18 -29z"/>
<path d="M1381 542 c-12 -23 4 -56 83 -166 31 -43 56 -82 56 -86 0 -12 57 -33
69 -25 6 3 11 13 11 20 0 9 6 12 18 9 14 -5 14 -4 2 4 -8 6 -17 9 -21 6 -11
-7 -31 24 -23 37 5 9 2 10 -9 6 -13 -5 -26 8 -52 49 -19 30 -35 59 -35 64 0 6
-4 10 -10 10 -5 0 -15 10 -21 23 l-12 22 23 -20 c25 -21 21 -11 -12 38 -22 31
-53 35 -67 9z"/>
<path d="M1505 430 c10 -11 20 -20 22 -20 2 0 -1 9 -7 20 -6 11 -16 20 -22 20
-6 0 -3 -9 7 -20z"/>
<path d="M1359 411 c6 -10 8 -20 6 -23 -3 -3 1 -5 9 -5 12 0 12 4 -1 24 -18
28 -28 31 -14 4z"/>
<path d="M1537 381 c3 -12 9 -21 14 -21 14 0 11 16 -5 29 -12 10 -13 8 -9 -8z"/>
<path d="M1501 254 c0 -11 3 -14 6 -6 3 7 2 16 -1 19 -3 4 -6 -2 -5 -13z"/>
<path d="M1975 610 c-3 -5 -3 -10 2 -11 4 0 -1 -4 -12 -9 -13 -6 -15 -9 -5 -9
8 0 22 4 30 9 13 9 13 10 0 10 -13 0 -13 1 0 10 9 6 10 10 3 10 -6 0 -15 -4
-18 -10z"/>
<path d="M3098 613 c7 -3 16 -2 19 1 4 3 -2 6 -13 5 -11 0 -14 -3 -6 -6z"/>
<path d="M820 420 c0 -5 5 -10 10 -10 6 0 10 5 10 10 0 6 -4 10 -10 10 -5 0
-10 -4 -10 -10z"/>
<path d="M5799 6127 c-189 -54 -312 -253 -269 -438 28 -120 118 -227 228 -270
79 -31 195 -31 274 0 122 47 221 177 234 307 16 157 -75 313 -221 380 -67 31
-178 40 -246 21z"/>
<path d="M1061 1296 c-7 -8 -8 -17 -3 -20 6 -3 12 3 15 14 6 24 4 25 -12 6z"/>
<path d="M1175 1204 c24 -19 219 -113 257 -124 23 -7 31 -4 48 17 11 14 20 31
20 37 0 6 -7 2 -15 -8 -15 -19 -15 -19 -15 2 0 12 5 22 10 22 6 0 10 4 10 10
0 12 -98 62 -112 58 -6 -2 8 -12 31 -22 22 -11 41 -25 41 -33 0 -15 -26 -18
-35 -3 -3 6 -15 10 -26 10 -10 0 -19 3 -19 8 0 18 -83 42 -148 42 -63 -1 -66
-2 -47 -16z m180 -34 c3 -6 -1 -7 -9 -4 -18 7 -21 14 -7 14 6 0 13 -4 16 -10z"/>
<path d="M2633 847 c-2 -4 -13 -5 -23 -2 -10 3 -22 0 -26 -6 -5 -9 -2 -10 9
-6 10 3 17 2 17 -3 0 -5 14 -4 33 2 44 15 51 23 21 23 -14 0 -28 -4 -31 -8z"/>
<path d="M2370 770 c-13 -8 -13 -10 2 -10 9 0 20 5 23 10 8 13 -5 13 -25 0z"/>
</g>
</svg>
