<?xml version="1.0" standalone="no"?>
<!DOCTYPE svg PUBLIC "-//W3C//DTD SVG 20010904//EN"
 "http://www.w3.org/TR/2001/REC-SVG-20010904/DTD/svg10.dtd">
<svg version="1.0" xmlns="http://www.w3.org/2000/svg"
 width="1280.000000pt" height="768.000000pt" viewBox="0 0 1280.000000 768.000000"
 preserveAspectRatio="xMidYMid meet">
<metadata>
Created by potrace 1.16, written by Peter Selinger 2001-2019
</metadata>
<g transform="translate(0.000000,768.000000) scale(0.100000,-0.100000)"
fill="#000000" stroke="none">
<path d="M324 7666 c-7 -19 84 -206 102 -206 22 0 203 93 209 108 2 7 -6 35
-20 63 l-25 49 -130 0 c-101 0 -132 -3 -136 -14z"/>
<path d="M868 7635 c-47 -25 -89 -49 -93 -54 -8 -14 80 -200 98 -207 21 -8
217 93 217 111 0 9 -20 56 -45 105 -37 74 -49 90 -68 89 -12 0 -61 -20 -109
-44z"/>
<path d="M1079 7602 c22 -43 46 -84 54 -91 23 -18 217 80 217 110 0 47 -17 59
-85 59 -56 0 -93 -12 -65 -22 6 -2 6 -9 0 -17 -7 -12 -10 -9 -15 12 -7 26 -10
27 -76 27 l-69 0 39 -78z"/>
<path d="M1572 7668 c-7 -7 -12 -18 -12 -25 0 -27 90 -193 105 -193 8 0 58 21
110 47 107 53 109 57 70 133 l-25 50 -118 0 c-78 0 -122 -4 -130 -12z"/>
<path d="M1691 7416 c-289 -144 -529 -269 -534 -277 -12 -20 100 -243 124
-247 22 -4 1258 614 1265 632 3 8 -11 46 -30 85 l-36 71 -133 -1 -132 -1 -524
-262z"/>
<path d="M2550 7618 c19 -41 37 -64 49 -66 18 -3 261 112 261 124 0 8 -154 2
-160 -7 -3 -4 -12 -9 -19 -11 -8 -2 -23 -11 -33 -20 -20 -20 -38 -23 -38 -7 0
5 5 7 10 4 6 -3 10 1 10 9 0 9 6 16 14 16 8 0 18 5 21 10 4 6 -21 10 -69 10
l-75 0 29 -62z"/>
<path d="M10770 7656 c0 -14 7 -31 15 -40 17 -17 20 -30 5 -21 -5 3 -10 2 -10
-4 0 -12 46 -48 73 -57 19 -6 20 -7 3 -19 -17 -13 -17 -15 -1 -39 10 -14 25
-26 34 -26 13 0 13 -2 2 -9 -11 -7 -5 -14 25 -30 21 -11 37 -21 34 -21 -3 -1
-25 -3 -49 -6 -76 -8 -83 -20 -26 -45 28 -12 51 -26 53 -30 6 -16 69 -21 93
-8 21 11 23 11 11 -3 -7 -9 -24 -19 -37 -22 -35 -9 -31 -23 8 -31 17 -4 38
-12 44 -17 7 -6 22 -8 34 -5 14 4 19 2 15 -8 -2 -7 2 -16 10 -19 12 -5 11 -9
-6 -26 -25 -25 -26 -46 -2 -59 15 -9 14 -10 -8 -11 -37 -1 -57 -15 -33 -25 15
-6 11 -9 -20 -19 -21 -6 -38 -15 -37 -19 0 -4 -13 -20 -30 -34 -35 -29 -28
-41 26 -41 36 0 54 -8 54 -23 0 -6 -4 -8 -9 -5 -17 11 -63 -13 -57 -29 4 -11
-2 -15 -19 -15 -13 0 -36 -11 -51 -24 -28 -23 -28 -23 -6 -30 28 -9 28 -22 -1
-30 -26 -6 -87 -66 -68 -66 8 0 2 -9 -12 -20 -14 -11 -30 -34 -36 -50 -10 -29
-9 -31 22 -37 36 -8 33 -8 67 2 23 7 24 7 10 -10 -14 -17 -13 -18 2 -12 9 3
32 9 52 12 19 4 40 13 47 21 18 22 30 16 23 -11 -6 -22 -3 -25 23 -25 17 0 38
9 48 20 13 14 21 17 25 9 10 -15 36 0 74 40 23 24 26 31 13 31 -25 0 -21 28 9
55 21 19 23 25 10 25 -46 0 6 59 54 61 22 1 21 2 -8 10 -28 8 -32 12 -22 24 7
8 25 15 41 15 15 0 30 4 33 9 8 12 99 7 103 -6 5 -15 -35 -27 -50 -15 -8 7
-22 6 -42 -3 -24 -11 -26 -14 -10 -15 11 -1 31 -1 44 0 15 1 21 -2 16 -10 -4
-6 -17 -10 -28 -9 -33 4 -64 -9 -80 -34 -19 -30 -16 -96 6 -109 10 -5 15 -13
12 -19 -4 -5 3 -9 14 -9 11 0 23 -4 26 -10 9 -14 48 -12 69 3 16 12 16 14 2
26 -23 19 -20 40 9 53 13 6 23 18 22 27 -1 9 3 16 8 16 5 0 9 -3 8 -7 -2 -5 1
-8 6 -8 19 0 20 44 1 57 -27 19 -26 43 3 40 19 -2 22 2 22 38 l0 40 55 0 c30
0 65 -4 78 -8 19 -7 24 -5 29 13 5 19 12 21 49 18 42 -3 43 -3 25 17 -10 11
-21 28 -24 38 -9 26 20 79 41 75 9 -1 23 1 31 6 9 6 12 5 8 -1 -4 -6 0 -17 9
-24 8 -7 22 -25 30 -41 13 -25 17 -27 37 -16 12 7 26 11 30 10 5 -2 7 1 5 5
-2 4 -14 29 -26 55 l-23 48 -27 -16 c-26 -16 -26 -16 2 8 48 40 42 54 -20 54
-36 -1 -54 -5 -54 -13 0 -7 -8 -13 -17 -13 -26 1 -96 34 -112 53 -7 9 -17 15
-21 12 -17 -11 -32 26 -27 65 l5 40 -48 0 c-54 0 -67 -14 -48 -56 10 -22 9
-28 -4 -38 -9 -6 -18 -23 -20 -36 -2 -15 -11 -26 -23 -29 -11 -2 -24 -9 -28
-17 -4 -8 -17 -14 -28 -14 -11 0 -30 -7 -42 -15 -31 -20 -57 -4 -40 24 11 18
9 19 -26 14 -42 -6 -60 9 -41 32 10 13 8 15 -17 15 -38 0 -55 17 -42 42 5 10
17 18 26 18 14 0 13 4 -6 21 -17 16 -20 24 -10 35 6 8 21 14 32 14 19 0 19 1
3 19 -22 24 -13 41 20 41 18 0 24 5 22 18 -3 14 6 17 49 19 34 1 56 -3 64 -13
9 -11 8 -14 -2 -14 -8 0 -1 -11 15 -25 29 -25 46 -31 46 -17 0 4 -10 12 -21
17 -27 12 -26 29 0 33 15 2 24 -6 35 -32 8 -20 20 -36 26 -36 6 0 9 4 5 10
-15 25 31 90 89 125 13 8 6 10 -31 11 -53 1 -121 28 -131 52 -9 25 52 72 95
72 l36 0 -23 25 c-23 25 -25 25 -187 25 -107 0 -162 -3 -158 -10 3 -5 2 -10
-4 -10 -5 0 -13 5 -16 10 -4 6 -75 10 -181 10 l-174 0 0 -24z"/>
<path d="M153 7592 c-51 -25 -95 -52 -98 -60 -7 -18 82 -191 101 -199 17 -6
188 72 206 95 8 9 1 34 -27 95 -40 87 -61 117 -79 116 -6 0 -53 -21 -103 -47z"/>
<path d="M1399 7585 c-47 -24 -91 -50 -98 -58 -10 -13 -4 -32 35 -109 25 -51
51 -96 57 -100 13 -8 206 88 213 107 8 19 -87 199 -106 202 -8 1 -53 -17 -101
-42z"/>
<path d="M12460 7568 c-19 -10 -54 -18 -78 -18 -26 0 -41 -4 -37 -10 3 -5 16
-10 28 -10 36 0 121 -45 140 -73 22 -34 22 -63 0 -72 -15 -6 -13 -9 12 -16 38
-11 135 0 135 15 0 6 24 12 58 14 65 4 84 15 53 31 -18 10 -21 9 -21 -5 0 -10
-3 -15 -6 -12 -3 4 -19 2 -35 -2 -18 -5 -29 -5 -29 1 0 6 -8 5 -20 -1 -14 -7
-26 -8 -39 0 -11 5 -28 10 -39 10 -11 0 -22 7 -26 15 -4 11 2 15 20 15 16 0
23 4 18 11 -3 6 -18 9 -32 6 -36 -7 -52 1 -52 27 0 12 -6 31 -14 42 -10 13
-11 23 -4 32 17 20 6 20 -32 0z"/>
<path d="M607 7504 c-48 -24 -90 -51 -93 -58 -7 -17 82 -195 100 -202 18 -7
216 93 216 109 -1 6 -22 53 -48 102 -33 64 -53 91 -67 92 -11 1 -60 -18 -108
-43z"/>
<path d="M0 7376 l0 -136 49 25 c27 13 53 29 56 35 8 12 -71 184 -92 201 -11
9 -13 -13 -13 -125z"/>
<path d="M1128 7449 c-59 -29 -98 -55 -98 -64 0 -19 86 -191 99 -200 11 -6
205 88 216 104 6 11 -81 192 -99 203 -15 11 -10 12 -118 -43z"/>
<path d="M343 7372 c-65 -33 -93 -52 -93 -64 0 -31 89 -198 105 -198 26 0 196
90 202 107 9 24 -83 203 -104 202 -10 0 -60 -21 -110 -47z"/>
<path d="M11266 7394 c1 -7 -8 -21 -22 -33 -13 -11 -24 -24 -25 -28 0 -5 -2
-19 -4 -33 -1 -14 4 -33 13 -42 8 -10 12 -18 7 -18 -16 0 17 -29 44 -38 21 -8
37 -5 70 10 25 11 39 23 35 30 -4 6 1 17 11 24 15 11 16 16 6 28 -7 8 -10 19
-7 25 3 5 -7 23 -23 40 -22 23 -38 31 -64 31 -20 0 -37 3 -40 8 -2 4 -3 2 -1
-4z"/>
<path d="M12390 7349 c-16 -21 -85 -29 -127 -15 -19 6 -23 4 -23 -12 0 -26 42
-87 60 -87 8 0 34 -12 57 -28 24 -15 47 -27 53 -27 5 0 15 -9 22 -20 18 -29
44 -25 59 9 7 16 16 28 20 25 4 -2 10 8 14 24 3 15 17 44 31 64 13 21 24 39
24 42 0 7 -88 26 -119 26 -17 0 -31 5 -31 10 0 17 -24 10 -40 -11z"/>
<path d="M858 7315 c-66 -34 -88 -50 -88 -65 0 -27 81 -188 98 -195 22 -8 212
92 212 113 -1 9 -20 55 -43 102 -52 104 -59 106 -179 45z"/>
<path d="M87 7244 l-88 -44 2 -135 c1 -74 3 -135 5 -135 19 0 286 144 291 157
9 24 -83 203 -104 202 -10 0 -57 -20 -106 -45z"/>
<path d="M12002 7198 c-1 -21 -8 -53 -16 -72 -13 -31 -13 -33 3 -29 11 3 21
-5 29 -22 19 -41 14 -77 -13 -109 -28 -32 -33 -45 -11 -27 19 16 72 17 89 2
11 -9 22 -6 51 14 41 28 47 30 44 14 -5 -20 30 -35 50 -21 38 27 67 34 95 24
15 -6 27 -9 27 -9 0 1 -4 16 -9 34 -7 23 -5 37 6 52 16 24 19 23 -72 25 l-70
1 3 35 c1 28 -5 43 -37 78 -38 41 -40 42 -51 23 -14 -27 -39 -26 -82 3 l-35
23 -1 -39z"/>
<path d="M598 7185 c-47 -25 -89 -49 -93 -54 -7 -13 92 -211 105 -211 25 0
210 101 210 115 0 9 -20 56 -45 105 -37 74 -49 90 -68 89 -12 0 -61 -20 -109
-44z"/>
<path d="M959 7050 c-63 -32 -121 -65 -127 -73 -11 -12 -3 -36 45 -131 31 -63
63 -118 70 -120 15 -6 273 124 280 141 3 7 -20 64 -51 128 -47 97 -59 115 -78
114 -13 0 -75 -26 -139 -59z"/>
<path d="M213 6992 l-213 -107 0 -127 c0 -92 3 -128 13 -131 20 -7 547 261
547 278 0 9 -20 56 -45 105 -37 74 -49 90 -68 89 -12 0 -118 -48 -234 -107z"/>
<path d="M663 6902 c-51 -25 -95 -52 -98 -59 -5 -16 104 -240 121 -247 14 -5
196 87 208 106 11 18 -102 242 -124 245 -8 1 -57 -19 -107 -45z"/>
<path d="M398 6769 c-59 -29 -98 -55 -98 -64 0 -20 106 -231 120 -240 11 -7
194 81 211 101 12 15 -104 254 -124 253 -6 0 -56 -22 -109 -50z"/>
<path d="M138 6639 c-74 -37 -98 -54 -98 -69 0 -27 101 -228 118 -235 21 -8
206 88 210 109 5 24 -94 223 -116 235 -12 6 -44 -5 -114 -40z"/>
<path d="M5125 6129 c-105 -13 -170 -44 -244 -118 -38 -38 -79 -90 -95 -123
-39 -80 -54 -188 -37 -271 15 -71 59 -160 77 -153 7 3 10 -2 7 -13 -4 -15 28
-49 103 -110 25 -20 54 -30 69 -25 9 4 15 3 14 -2 -4 -21 2 -28 11 -14 9 13
11 13 20 0 5 -8 10 -10 10 -5 0 6 4 4 9 -3 10 -17 119 -24 182 -12 127 24 246
117 306 238 37 74 38 79 38 187 0 108 -1 113 -38 187 -44 90 -135 182 -171
173 -11 -2 -15 -2 -8 1 10 5 9 9 -5 20 -10 7 -22 13 -28 14 -5 0 -3 -5 5 -10
10 -7 11 -10 2 -10 -7 0 -15 7 -18 15 -4 8 -10 12 -15 9 -5 -3 -9 0 -9 6 0 6
-4 9 -8 6 -5 -3 -33 1 -63 7 -33 8 -77 10 -114 6z m284 -331 c1 7 5 11 10 8 5
-4 12 0 15 6 3 7 3 0 0 -17 -4 -19 -2 -25 3 -17 12 16 32 -65 40 -161 6 -68 6
-68 -30 -105 -20 -20 -53 -56 -73 -80 -22 -25 -43 -41 -51 -38 -8 3 -12 2 -9
-3 7 -10 -22 -23 -34 -16 -5 3 -11 1 -15 -4 -8 -13 -45 24 -45 45 0 20 32 118
40 124 6 4 20 38 25 60 1 3 13 31 28 64 15 32 27 62 27 66 0 4 7 13 15 20 8 7
13 16 10 20 -3 5 2 15 10 23 8 9 15 22 16 29 1 7 5 2 9 -12 4 -14 8 -19 9 -12z"/>
<path d="M4798 6005 c-24 -27 -34 -32 -41 -23 -6 9 -7 6 -4 -10 3 -12 2 -20
-3 -17 -12 7 -33 -23 -24 -36 4 -7 3 -9 -3 -6 -6 4 -16 -7 -23 -23 -7 -17 -16
-30 -21 -30 -5 0 -9 -9 -9 -19 0 -11 -4 -22 -9 -25 -25 -16 -10 -196 18 -216
4 -3 17 -22 30 -42 12 -21 24 -38 26 -38 2 0 -4 26 -12 58 -10 39 -14 87 -11
152 5 109 30 180 90 260 44 58 42 65 -4 15z"/>
<path d="M0 5715 c0 -3 35 -75 77 -160 67 -135 75 -156 62 -171 -11 -13 -25
-15 -76 -11 -35 4 -63 3 -63 -2 0 -4 120 -13 268 -21 147 -7 277 -13 289 -14
28 -1 37 -11 29 -32 -6 -16 -8 -16 -19 -1 -10 13 -20 14 -62 7 -27 -6 -59 -14
-70 -20 -11 -5 -47 -11 -80 -13 -56 -3 -55 -3 16 -5 48 -1 81 -7 87 -15 10
-12 9 -147 -2 -372 -3 -49 -8 -160 -11 -245 -12 -297 -14 -335 -21 -372 -4
-24 -2 -43 5 -52 9 -11 10 -20 1 -35 -6 -12 -10 -47 -9 -78 0 -32 -2 -78 -6
-103 -3 -25 -2 -58 4 -72 6 -17 6 -28 1 -30 -6 -2 -12 -61 -15 -131 -4 -81 -2
-126 4 -123 5 4 13 1 17 -5 5 -8 3 -9 -6 -4 -10 6 -12 4 -7 -9 4 -9 3 -15 -2
-11 -14 8 -23 -67 -12 -97 6 -17 6 -29 0 -35 -15 -15 -15 -113 0 -123 11 -6
11 -8 0 -12 -10 -3 -15 -27 -16 -79 -3 -92 -13 -321 -18 -414 -2 -38 -7 -133
-10 -210 -3 -77 -8 -176 -10 -220 -7 -125 -7 -184 -1 -194 4 -5 2 -12 -4 -16
-5 -3 -10 -26 -10 -51 0 -34 4 -44 16 -44 9 0 22 -7 28 -15 6 -8 23 -16 39
-17 28 -2 33 -18 29 -87 -1 -23 -1 -23 14 -5 9 11 13 13 9 7 -4 -9 3 -13 24
-13 16 0 36 -2 43 -5 11 -4 14 8 16 55 l3 60 -48 1 c-27 1 -52 2 -58 4 -5 1
-18 3 -27 3 -19 2 -25 38 -8 44 5 2 52 2 104 0 77 -3 96 -6 101 -20 4 -10 -1
-22 -11 -29 -10 -7 -13 -13 -7 -13 6 0 16 7 24 16 18 22 0 47 -37 54 -27 5
-29 9 -26 43 l3 37 -58 1 c-73 1 -98 9 -99 32 -2 15 9 17 95 18 53 1 88 3 78
6 -15 4 -18 12 -15 44 l4 39 -61 1 c-69 1 -89 7 -93 32 -3 15 7 17 90 18 51 0
87 3 80 6 -7 2 -12 22 -12 44 l0 39 -52 0 c-72 0 -98 9 -98 31 0 17 9 19 93
20 50 1 84 3 73 6 -15 4 -17 11 -12 44 l6 39 -62 1 c-72 1 -92 7 -96 32 -3 15
7 17 90 18 51 0 87 3 81 6 -8 2 -13 22 -13 44 l0 39 -52 0 c-72 0 -98 9 -98
31 0 17 8 19 83 19 l82 0 -3 45 -4 45 -62 0 c-66 0 -79 5 -84 33 -3 15 6 17
75 17 l78 0 0 43 0 42 -45 3 c-89 5 -108 11 -103 32 5 18 14 20 82 20 l76 0
-1 42 -1 43 -54 3 c-81 3 -99 10 -99 33 0 19 5 20 78 18 l77 -2 0 44 0 44 -45
3 c-89 5 -108 11 -103 32 6 22 18 24 136 14 74 -7 77 -8 77 -33 1 -23 2 -24
11 -8 14 24 -3 45 -39 49 -24 3 -27 7 -24 39 3 42 -9 49 -88 49 -45 0 -72 10
-72 25 0 20 39 26 128 19 l96 -7 -5 -26 c-5 -24 -4 -24 9 -7 18 26 1 46 -38
46 -29 0 -30 2 -26 39 3 37 1 40 -26 45 -15 3 -45 6 -65 6 -45 0 -66 13 -58
34 6 15 19 16 99 11 128 -9 138 -14 101 -51 -12 -12 -13 -16 -4 -13 45 15 38
69 -9 69 -28 0 -30 2 -30 39 0 44 -12 51 -90 51 -57 0 -75 10 -57 32 10 14 28
15 110 11 96 -6 97 -6 97 -31 0 -21 3 -23 12 -14 18 18 -2 46 -38 52 -27 5
-29 9 -26 42 l3 36 -58 7 c-86 9 -103 14 -103 29 0 20 15 23 118 18 72 -3 95
-8 99 -19 4 -9 -2 -22 -12 -29 -10 -8 -14 -14 -8 -14 11 0 43 27 43 35 0 13
-36 35 -57 35 -23 0 -25 3 -21 40 l4 40 -38 2 c-106 5 -118 8 -118 34 0 11 20
14 105 14 104 0 105 0 105 -24 0 -13 -5 -27 -10 -29 -6 -3 -5 -4 2 -3 6 1 16
9 22 18 13 22 -9 48 -40 48 -21 0 -24 5 -24 40 0 44 9 40 -105 45 -39 1 -56
12 -48 31 4 12 24 14 106 12 98 -3 101 -4 108 -28 5 -22 7 -23 14 -7 10 25
-12 47 -48 47 -29 0 -29 1 -23 40 l6 40 -42 2 c-102 3 -118 8 -118 34 0 12 18
14 108 12 104 -3 107 -4 106 -25 0 -13 3 -23 8 -23 4 0 8 11 8 24 0 25 -16 36
-52 36 -17 0 -20 5 -16 40 l4 40 -53 1 c-29 1 -57 3 -63 4 -5 1 -16 3 -23 4
-7 0 -13 10 -14 21 -2 19 5 20 90 21 51 0 86 3 80 6 -7 2 -13 22 -13 43 l0 38
-71 4 c-47 2 -73 8 -79 18 -16 26 4 31 106 28 l99 -3 0 -27 c-1 -21 2 -24 12
-16 7 6 13 14 13 19 0 16 -33 39 -57 39 -24 0 -25 2 -20 40 l5 40 -56 0 c-77
0 -101 8 -99 31 1 17 10 19 92 20 49 0 84 3 78 6 -8 2 -13 22 -13 44 l0 39
-62 0 c-68 0 -81 5 -86 33 -3 15 7 17 90 18 51 0 87 3 81 6 -8 2 -13 22 -13
44 l0 39 -57 0 c-80 0 -102 7 -96 31 5 17 15 19 82 19 l76 0 -1 42 -1 43 -71
5 c-76 5 -88 11 -79 35 5 12 23 15 84 15 l78 0 -3 60 c-4 58 -3 59 24 66 16 4
121 2 234 -5 500 -30 699 -41 750 -39 65 1 -7 7 -505 43 -192 14 -367 27 -388
30 -21 2 -63 -4 -94 -13 -50 -14 -82 -14 -296 -4 -133 7 -242 13 -243 15 -1 1
-41 80 -88 175 -76 152 -96 187 -96 167z"/>
<path d="M12215 4796 c-100 -20 -205 -76 -277 -148 -179 -179 -207 -438 -72
-655 180 -289 580 -339 824 -102 69 67 110 141 109 196 l0 48 -14 -38 c-39
-105 -143 -220 -247 -273 -306 -156 -683 53 -722 399 -26 234 142 476 374 537
62 17 205 14 265 -4 27 -8 51 -13 53 -11 2 2 -22 11 -54 20 -79 22 -82 23 -58
24 44 2 224 -75 224 -95 0 -3 -16 3 -36 15 -54 32 -55 25 -1 -9 26 -17 52 -28
57 -25 5 3 12 0 16 -6 5 -8 3 -9 -6 -4 -8 5 -11 3 -8 -6 3 -8 12 -13 21 -13 9
1 15 -1 13 -5 -3 -4 4 -18 15 -31 38 -48 73 -105 90 -150 l18 -45 1 51 c1 132
-193 301 -381 333 -80 13 -125 13 -204 -3z"/>
<path d="M1880 4281 c0 -137 3 -256 6 -265 4 -10 18 -16 35 -16 l29 0 0 265 0
265 -35 0 -35 0 0 -249z"/>
<path d="M1982 4273 l3 -258 2 253 3 252 26 0 c15 0 23 -4 19 -11 -4 -6 -13
-8 -21 -5 -20 7 -17 -4 4 -20 15 -12 15 -15 2 -25 -11 -8 -12 -12 -2 -16 6 -2
12 -11 12 -19 0 -8 5 -13 12 -11 6 1 17 -8 23 -21 10 -19 12 -11 10 50 l-3 73
7 -62 c6 -66 28 -98 66 -100 11 0 52 -7 90 -16 102 -23 302 -40 323 -27 9 5
14 10 10 10 -8 0 19 68 34 87 12 15 43 -9 66 -52 18 -35 20 -141 3 -173 -13
-24 -39 -52 -50 -52 -4 0 -17 21 -29 46 -18 36 -27 45 -42 41 -12 -3 -18 -1
-14 5 10 15 -169 1 -288 -23 -53 -10 -99 -19 -102 -19 -3 0 -7 37 -8 83 l-2
82 -5 -85 c-5 -76 -8 -85 -26 -85 -18 0 -20 -8 -23 -88 -4 -83 -3 -87 17 -87
19 0 21 6 21 68 0 65 10 92 34 92 6 0 4 -5 -4 -11 -12 -8 -11 -9 5 -5 122 33
377 65 383 49 1 -4 13 -26 25 -48 18 -32 29 -41 56 -43 18 -2 38 1 43 6 5 5
-3 7 -20 4 -22 -3 -33 2 -46 19 -9 13 -16 28 -16 34 1 5 8 -2 16 -17 26 -49
74 -31 98 34 17 49 28 167 14 146 -7 -9 -8 -4 -4 13 7 34 -27 81 -51 72 -11
-4 -14 -3 -9 5 12 20 -49 14 -66 -5 -8 -10 -19 -30 -26 -45 -7 -17 -19 -28
-31 -28 -11 0 -23 -4 -26 -10 -3 -5 -23 -9 -43 -9 l-37 2 40 8 c28 6 14 7 -50
4 -62 -2 -81 0 -60 6 23 6 17 7 -25 4 -40 -3 -50 -2 -35 5 15 7 8 8 -25 4 -35
-4 -42 -3 -30 6 12 9 7 10 -20 5 -26 -5 -31 -4 -20 4 16 11 13 12 -45 15 -18
1 -20 9 -23 74 l-3 72 -69 0 -70 0 2 -257z"/>
<path d="M11740 4451 c0 -5 -11 -12 -25 -15 -27 -7 -39 -25 -50 -73 -6 -29 -4
-33 19 -39 19 -4 26 -13 26 -29 0 -13 3 -30 6 -39 4 -11 -2 -19 -20 -26 -26
-10 -36 -22 -14 -17 6 1 14 -6 16 -15 2 -11 -2 -18 -11 -18 -12 0 -14 -9 -10
-42 3 -24 12 -53 19 -65 8 -12 14 -33 14 -47 0 -30 38 -98 51 -90 5 3 9 0 9
-5 0 -6 7 -11 15 -11 8 0 24 -9 35 -20 11 -11 23 -20 27 -20 4 0 17 -9 29 -21
21 -20 51 -18 38 2 -3 5 -9 7 -13 4 -5 -2 -21 17 -37 43 -16 26 -35 56 -42 67
-52 82 -62 121 -72 279 -6 86 -7 168 -4 181 3 14 3 25 0 25 -3 0 -6 -4 -6 -9z"/>
<path d="M1395 1207 c-13 -7 -16 -22 -14 -65 l3 -56 -60 -33 c-32 -18 -89 -45
-127 -60 -37 -14 -65 -28 -63 -30 2 -2 21 3 41 11 43 18 59 20 32 5 -32 -19
-160 -59 -186 -59 -21 0 -33 11 -60 58 -19 31 -35 58 -36 60 -2 2 -103 -63
-114 -73 -1 -2 4 -14 12 -26 16 -22 16 -22 14 -1 0 11 -5 18 -9 16 -4 -3 -8
-1 -8 4 0 16 30 23 49 12 10 -5 21 -6 25 -3 3 3 6 -1 6 -10 0 -10 4 -17 8 -17
5 0 14 -12 21 -26 6 -15 14 -24 18 -21 3 4 -1 17 -9 29 -16 25 -29 58 -24 58
4 0 49 -71 51 -80 0 -3 12 -23 26 -45 14 -22 37 -59 50 -82 13 -24 30 -43 37
-43 6 0 11 -3 10 -7 -2 -12 19 -58 48 -104 l26 -42 -23 -19 c-19 -15 -15 -14
17 3 l41 23 -33 55 c-19 31 -34 61 -34 68 0 16 119 143 134 143 6 0 -10 -18
-36 -41 -65 -55 -94 -97 -79 -112 9 -9 11 -8 6 4 -7 18 119 143 198 198 26 18
45 36 42 41 -5 9 46 50 62 50 4 0 -7 -10 -25 -21 -18 -12 -31 -24 -28 -26 2
-3 16 3 30 12 24 16 26 16 59 -9 42 -32 78 -33 103 -3 10 12 12 16 4 10 -22
-20 -65 -15 -86 10 -19 22 -19 22 2 5 11 -10 24 -18 29 -18 5 0 -6 11 -25 25
-19 14 -43 25 -55 25 -29 0 -181 -108 -267 -188 -37 -36 -70 -63 -72 -61 -2 2
-18 28 -36 57 -17 28 -34 52 -37 52 -5 0 34 -68 49 -84 4 -6 8 -21 7 -35 0
-16 -3 -20 -6 -11 -4 8 -24 43 -45 77 -49 78 -43 89 60 122 43 14 127 50 187
81 88 44 110 60 108 75 -1 11 -5 41 -9 67 l-6 46 35 -8 c54 -12 92 -45 121
-102 28 -56 33 -107 14 -126 -7 -7 -8 -12 -2 -12 35 0 45 74 19 136 -8 20 -13
39 -10 43 6 10 -60 73 -67 65 -4 -3 -15 -1 -25 6 -17 11 -17 11 2 5 11 -3 16
-3 12 2 -11 10 -83 11 -102 0z"/>
<path d="M746 935 c-17 -13 -18 -18 -7 -42 25 -56 246 -415 257 -420 18 -7 56
16 52 31 -6 27 -263 446 -273 445 -5 0 -19 -6 -29 -14z"/>
</g>
</svg>
